<?xml version="1.0" encoding="UTF-8" standalone="no"?>
<!-- Created with Inkscape (http://www.inkscape.org/) -->

<svg
   xmlns:dc="http://purl.org/dc/elements/1.1/"
   xmlns:cc="http://creativecommons.org/ns#"
   xmlns:rdf="http://www.w3.org/1999/02/22-rdf-syntax-ns#"
   xmlns:svg="http://www.w3.org/2000/svg"
   xmlns="http://www.w3.org/2000/svg"
   xmlns:sodipodi="http://sodipodi.sourceforge.net/DTD/sodipodi-0.dtd"
   xmlns:inkscape="http://www.inkscape.org/namespaces/inkscape"
   width="550"
   height="550"
   viewBox="0 0 550.00001 550.00001"
   id="svg3420"
   version="1.1"
   inkscape:version="0.91 r13725"
   inkscape:export-filename="/home/coringao/osmose-emulator.xpm"
   inkscape:export-xdpi="41.900002"
   inkscape:export-ydpi="41.900002"
   sodipodi:docname="osmose-emulator.svg">
  <title
     id="title3428">Osmose Emulator</title>
  <defs
     id="defs3422" />
  <sodipodi:namedview
     id="base"
     pagecolor="#ffffff"
     bordercolor="#666666"
     borderopacity="1.0"
     inkscape:pageopacity="0.0"
     inkscape:pageshadow="2"
     inkscape:zoom="0.85818182"
     inkscape:cx="110.04638"
     inkscape:cy="270.33898"
     inkscape:document-units="px"
     inkscape:current-layer="layer1"
     showgrid="false"
     units="px"
     inkscape:window-width="1366"
     inkscape:window-height="704"
     inkscape:window-x="0"
     inkscape:window-y="27"
     inkscape:window-maximized="1"
     objecttolerance="10000"
     guidetolerance="10000">
    <inkscape:grid
       type="xygrid"
       id="grid3414" />
  </sodipodi:namedview>
  <metadata
     id="metadata3425">
    <rdf:RDF>
      <cc:Work
         rdf:about="">
        <dc:format>image/svg+xml</dc:format>
        <dc:type
           rdf:resource="http://purl.org/dc/dcmitype/StillImage" />
        <dc:title>Osmose Emulator</dc:title>
        <dc:date>2016-12-17</dc:date>
        <dc:creator>
          <cc:Agent>
            <dc:title>Carlos Donizete Froes [a.k.a coringao]</dc:title>
          </cc:Agent>
        </dc:creator>
        <cc:license
           rdf:resource="http://creativecommons.org/licenses/by-nc-sa/3.0/" />
        <dc:description>Sega Master System and Game Gear console emulator</dc:description>
      </cc:Work>
      <cc:License
         rdf:about="http://creativecommons.org/licenses/by-nc-sa/3.0/">
        <cc:permits
           rdf:resource="http://creativecommons.org/ns#Reproduction" />
        <cc:permits
           rdf:resource="http://creativecommons.org/ns#Distribution" />
        <cc:requires
           rdf:resource="http://creativecommons.org/ns#Notice" />
        <cc:requires
           rdf:resource="http://creativecommons.org/ns#Attribution" />
        <cc:prohibits
           rdf:resource="http://creativecommons.org/ns#CommercialUse" />
        <cc:permits
           rdf:resource="http://creativecommons.org/ns#DerivativeWorks" />
        <cc:requires
           rdf:resource="http://creativecommons.org/ns#ShareAlike" />
      </cc:License>
    </rdf:RDF>
  </metadata>
  <g
     inkscape:label="Camada 1"
     inkscape:groupmode="layer"
     id="layer1"
     transform="translate(0,-502.36216)">
    <path
       d="m 536.523,601.40084 0,353.1737 c 0,8.83427 -3.78917,16.0038 -8.46374,16.0038 l -503.021742,0 c -4.673273,0 -8.462448,-7.16953 -8.462448,-16.0038 l 0,-353.1737 c 0,-8.83427 3.789175,-16.0038 8.462448,-16.0038 l 503.023032,0 c 4.67328,0 8.46245,7.17181 8.46245,16.0038 z"
       id="path13"
       inkscape:connector-curvature="0"
       style="fill:#39393a" />
    <polygon
       transform="matrix(1.2963308,0,0,2.2993977,-55.311661,189.13486)"
       points="227.325,179.795 227.325,222.557 456.546,222.557 456.546,313.789 227.325,313.789 227.325,332.372 74.761,332.372 74.761,179.795 "
       id="polygon15"
       style="fill:#1e1e1e" />
    <path
       d="M 58.764153,639.20294 136.66457,777.98769 58.764153,916.74024 c -0.649456,-2.20741 -1.011135,-4.73676 -1.011135,-7.39484 l 0,-262.75218 c 0,-2.65353 0.360378,-5.18055 1.011135,-7.39028 z"
       id="path17"
       inkscape:connector-curvature="0"
       style="fill:#9598a1" />
    <polygon
       transform="matrix(1.2963308,0,0,2.2993977,-55.311661,189.13486)"
       points="148.092,256.09 151.043,253.126 153.994,256.09 151.043,259.042 "
       id="polygon19"
       style="fill:#9598a1" />
    <path
       d="m 218.39045,923.52807 c -1.24448,1.15201 -2.67044,1.82341 -4.18585,1.82341 l -147.42912,0 c -1.515412,0 -2.941369,-0.6714 -4.185847,-1.82341 l 77.900407,-138.75486 77.90041,138.75486 z"
       id="path21"
       inkscape:connector-curvature="0"
       style="fill:#9598a1" />
    <path
       d="M 218.39045,632.41743 140.49004,771.16998 62.589633,632.41743 c 1.244478,-1.15201 2.670435,-1.82344 4.185847,-1.82344 l 147.42782,0 c 1.51541,0 2.94138,0.67143 4.18715,1.82344 z"
       id="path23"
       inkscape:connector-curvature="0"
       style="fill:#9598a1" />
    <path
       d="m 223.22576,646.59781 0,262.75218 c 0,2.65581 -0.36038,5.18513 -1.01113,7.39486 L 144.31422,777.99229 222.21463,639.20755 c 0.65075,2.20512 1.01113,4.73214 1.01113,7.39026 z"
       id="path25"
       inkscape:connector-curvature="0"
       style="fill:#9598a1" />
    <g
       transform="matrix(1.2963308,0,0,2.2993977,-55.311661,189.13486)"
       id="g27">
      <path
         d="m 215.256,183.831 -15.382,0 c 0.014,0.028 0.014,0.042 0.028,0.07 0.07,0.209 0.111,0.432 0.111,0.626 0,0.251 -0.042,0.487 -0.153,0.696 l 15.396,0 c 3.452,0 6.264,2.798 6.264,6.264 l 0,129.206 c 0,3.452 -2.812,6.264 -6.264,6.264 l -128.427,0 c -3.452,0 -6.264,-2.812 -6.264,-6.264 l 0,-129.206 c 0,-3.466 2.812,-6.264 6.264,-6.264 l 18.068,0 c -0.097,-0.223 -0.139,-0.459 -0.139,-0.696 0,-0.237 0.042,-0.473 0.153,-0.696 l -18.082,0 c -4.218,0 -7.656,3.424 -7.656,7.656 l 0,129.206 c 0,4.218 3.438,7.656 7.656,7.656 l 128.427,0 c 4.218,0 7.656,-3.438 7.656,-7.656 l 0,-129.206 c 0,-4.231 -3.438,-7.656 -7.656,-7.656 z m -82.504,0.446 c -0.251,0.153 -0.501,0.306 -0.766,0.432 -0.306,0.195 -0.599,0.362 -0.877,0.515 l 1.824,0 c 0.028,-0.125 0.07,-0.251 0.111,-0.39 0.07,-0.195 0.167,-0.418 0.306,-0.682 0.014,-0.042 0.042,-0.084 0.07,-0.139 0.028,-0.056 0.056,-0.111 0.097,-0.167 -0.264,0.139 -0.515,0.278 -0.765,0.431 z m 9.98,0 c -0.251,0.153 -0.501,0.306 -0.766,0.432 -0.306,0.195 -0.599,0.362 -0.877,0.515 l 1.837,0 c 0.014,-0.125 0.056,-0.251 0.097,-0.39 0.056,-0.195 0.167,-0.418 0.292,-0.682 0.028,-0.042 0.056,-0.084 0.084,-0.139 0.028,-0.056 0.056,-0.111 0.097,-0.167 -0.262,0.139 -0.513,0.278 -0.764,0.431 z m 31.376,0 c -0.237,0.153 -0.501,0.306 -0.752,0.432 -0.306,0.195 -0.599,0.362 -0.877,0.515 l 1.81,0 c 0.028,-0.125 0.07,-0.251 0.111,-0.39 0.07,-0.195 0.167,-0.418 0.306,-0.682 0.028,-0.042 0.042,-0.084 0.07,-0.139 0.028,-0.056 0.07,-0.111 0.097,-0.167 -0.264,0.139 -0.514,0.278 -0.765,0.431 z"
         id="path29"
         inkscape:connector-curvature="0"
         style="fill:#795559" />
    </g>
    <path
       d="m 208.09629,842.04202 c 0,30.84871 -14.0989,55.85697 -31.49047,55.85697 l -72.23286,0 c -17.391573,0 -31.490467,-25.00826 -31.490467,-55.85697 l 0,-128.12476 c 0,-30.8487 14.098894,-55.85695 31.490467,-55.85695 l 72.23286,0 c 17.39157,0 31.49047,25.00825 31.49047,55.85695 l 0,128.12476 z"
       id="path31"
       inkscape:connector-curvature="0"
       style="fill:#1f1f1f" />
    <path
       d="m 200.95998,835.27948 c 0,27.59278 -12.6107,49.96133 -28.16667,49.96133 l -64.60784,0 c -15.555968,0 -28.166673,-22.36855 -28.166673,-49.96133 l 0,-114.59969 c 0,-27.59276 12.610705,-49.96131 28.166673,-49.96131 l 64.60784,0 c 15.55597,0 28.16667,22.36855 28.16667,49.96131 l 0,114.59969 z"
       id="path33"
       inkscape:connector-curvature="0"
       style="fill:#3b3b42" />
    <rect
       height="385.17899"
       width="6.6735106"
       x="34.929798"
       y="585.38995"
       id="rect35"
       style="opacity:0.1;fill:#bfcad9" />
    <polygon
       transform="matrix(1.2963308,0,0,2.2993977,-55.311661,189.13486)"
       points="227.088,222.557 227.088,172.152 232.225,172.152 232.225,217.407 456.546,217.407 456.546,222.557 "
       id="polygon37"
       style="opacity:0.5;fill:#4a4a56" />
    <polygon
       transform="matrix(1.2963308,0,0,2.2993977,-55.311661,189.13486)"
       points="232.225,319.009 232.225,339.667 227.088,339.667 227.088,313.859 456.546,313.859 456.546,319.009 "
       id="polygon39"
       style="opacity:0.5;fill:#161618" />
    <g
       transform="matrix(1.2963308,0,0,2.2993977,-55.311661,189.13486)"
       id="g41">
      <polygon
         points="232.06,308.551 231.397,308.551 231.729,244.518 231.729,244.518 "
         id="polygon43"
         style="fill:#bbbbbb" />
      <polygon
         points="294.947,308.551 294.285,308.551 294.616,244.518 294.616,244.518 "
         id="polygon45"
         style="fill:#bbbbbb" />
      <polygon
         points="290.755,308.551 290.093,308.551 290.424,244.518 290.424,244.518 "
         id="polygon47"
         style="fill:#bbbbbb" />
      <polygon
         points="282.37,308.551 281.708,308.551 282.039,244.518 282.039,244.518 "
         id="polygon49"
         style="fill:#bbbbbb" />
      <polygon
         points="265.6,308.551 264.938,308.551 265.269,244.518 265.269,244.518 "
         id="polygon51"
         style="fill:#bbbbbb" />
      <polygon
         points="248.83,308.551 248.168,308.551 248.499,244.518 248.499,244.518 "
         id="polygon53"
         style="fill:#bbbbbb" />
      <polygon
         points="236.252,308.551 235.59,308.551 235.921,244.518 235.921,244.518 "
         id="polygon55"
         style="fill:#bbbbbb" />
      <polygon
         points="240.445,308.551 239.783,308.551 240.114,244.518 240.114,244.518 "
         id="polygon57"
         style="fill:#bbbbbb" />
      <polygon
         points="244.637,308.551 243.975,308.551 244.306,244.518 244.306,244.518 "
         id="polygon59"
         style="fill:#bbbbbb" />
      <polygon
         points="253.022,308.551 252.36,308.551 252.691,244.518 252.691,244.518 "
         id="polygon61"
         style="fill:#bbbbbb" />
      <polygon
         points="257.215,308.551 256.553,308.551 256.884,244.518 256.884,244.518 "
         id="polygon63"
         style="fill:#bbbbbb" />
      <polygon
         points="261.407,308.551 260.745,308.551 261.076,244.518 261.076,244.518 "
         id="polygon65"
         style="fill:#bbbbbb" />
      <polygon
         points="269.792,308.551 269.13,308.551 269.461,244.518 269.461,244.518 "
         id="polygon67"
         style="fill:#bbbbbb" />
      <polygon
         points="273.985,308.551 273.323,308.551 273.654,244.518 273.654,244.518 "
         id="polygon69"
         style="fill:#bbbbbb" />
      <polygon
         points="278.177,308.551 277.515,308.551 277.846,244.518 277.846,244.518 "
         id="polygon71"
         style="fill:#bbbbbb" />
      <polygon
         points="286.562,308.551 285.9,308.551 286.231,244.518 286.231,244.518 "
         id="polygon73"
         style="fill:#bbbbbb" />
    </g>
    <rect
       height="147.23502"
       width="83.006653"
       x="332.17328"
       y="751.37885"
       id="rect75"
       style="fill:#9598a1" />
    <rect
       height="147.23502"
       width="83.006653"
       x="424.94647"
       y="751.37885"
       id="rect77"
       style="fill:#9598a1" />
    <ellipse
       cx="373.67664"
       cy="824.99646"
       id="circle79"
       style="fill:#212221"
       rx="33.963871"
       ry="60.244221" />
    <path
       d="m 373.67663,875.6385 c -15.74135,0 -28.5491,-22.71804 -28.5491,-50.63961 0,-27.9216 12.80775,-50.63964 28.5491,-50.63964 15.74393,0 28.55168,22.71804 28.55168,50.63964 -0.001,27.92157 -12.80904,50.63961 -28.55168,50.63961 z"
       id="path81"
       inkscape:connector-curvature="0"
       style="fill:#3b3b42" />
    <ellipse
       cx="466.4498"
       cy="824.99646"
       id="circle83"
       style="fill:#212221"
       rx="33.963871"
       ry="60.244221" />
    <path
       d="m 466.45114,875.6385 c -15.74394,0 -28.55169,-22.71804 -28.55169,-50.63961 0,-27.9216 12.80775,-50.63964 28.55169,-50.63964 15.74134,0 28.54909,22.71804 28.54909,50.63964 0,27.92157 -12.80775,50.63961 -28.54909,50.63961 z"
       id="path85"
       inkscape:connector-curvature="0"
       style="fill:#3b3b42" />
    <path
       d="m 415.17995,740.9283 c 0,1.39113 -0.6352,2.51784 -1.41948,2.51784 l -80.16769,0 c -0.78429,0 -1.41948,-1.12671 -1.41948,-2.51784 l 0,-23.07216 c 0,-1.39112 0.63519,-2.51784 1.41948,-2.51784 l 80.16769,0 c 0.78428,0 1.41948,1.12672 1.41948,2.51784 l 0,23.07216 z"
       id="path87"
       inkscape:connector-curvature="0"
       style="fill:#795559" />
    <path
       d="m 507.95447,740.9283 c 0,1.39113 -0.63521,2.51784 -1.41949,2.51784 l -80.16899,0 c -0.78427,0 -1.41948,-1.12671 -1.41948,-2.51784 l 0,-23.07216 c 0,-1.39112 0.63521,-2.51784 1.41948,-2.51784 l 80.16769,0 c 0.78428,0 1.41948,1.12672 1.41948,2.51784 l 0,23.07216 z"
       id="path89"
       inkscape:connector-curvature="0"
       style="fill:#795559" />
    <g
       transform="matrix(1.2963308,0,0,2.2993977,-55.311661,189.13486)"
       id="g91">
      <path
         d="m 112.433,188.082 c -0.112,0 -0.217,-0.003 -0.314,-0.008 -0.097,-0.005 -0.171,-0.012 -0.222,-0.023 -0.286,-0.082 -0.542,-0.212 -0.766,-0.39 -0.224,-0.178 -0.393,-0.396 -0.505,-0.651 -0.071,-0.143 -0.118,-0.273 -0.138,-0.39 -0.02,-0.117 -0.031,-0.238 -0.031,-0.36 0,-0.163 0.015,-0.321 0.046,-0.474 -0.092,-0.061 -0.189,-0.128 -0.291,-0.198 -0.102,-0.072 -0.179,-0.148 -0.23,-0.23 -0.245,-0.326 -0.368,-0.674 -0.368,-1.041 0,-0.245 0.054,-0.477 0.16,-0.697 0.107,-0.219 0.253,-0.416 0.437,-0.589 0.051,-0.052 0.145,-0.148 0.283,-0.291 0.138,-0.143 0.263,-0.285 0.375,-0.43 l 0.307,-0.337 c 0.143,-0.152 0.288,-0.309 0.436,-0.466 0.147,-0.158 0.293,-0.309 0.436,-0.451 0.163,-0.143 0.306,-0.266 0.429,-0.368 0.122,-0.102 0.23,-0.184 0.321,-0.245 0.53,-0.326 1.081,-0.428 1.654,-0.306 0.592,0.152 0.985,0.485 1.179,0.995 l -0.015,-0.015 c 0.041,0.091 0.074,0.181 0.099,0.268 0.026,0.087 0.044,0.175 0.054,0.268 0.143,-0.154 0.271,-0.299 0.383,-0.436 0.112,-0.137 0.215,-0.262 0.307,-0.375 l 0.214,-0.245 c 0.02,-0.02 0.036,-0.041 0.046,-0.061 0.01,-0.011 0.02,-0.026 0.031,-0.046 0.234,-0.276 0.513,-0.472 0.835,-0.59 0.321,-0.117 0.645,-0.135 0.972,-0.053 0.224,0.061 0.432,0.174 0.621,0.337 0.188,0.163 0.345,0.352 0.467,0.565 0.143,0.328 0.207,0.605 0.191,0.835 -0.015,0.23 -0.033,0.386 -0.053,0.468 -0.011,0.05 -0.023,0.099 -0.039,0.145 -0.015,0.046 -0.028,0.09 -0.038,0.13 l -0.092,0.291 -0.016,0.045 c 0.204,0.02 0.406,0.077 0.605,0.169 0.199,0.092 0.37,0.22 0.513,0.383 0.133,0.163 0.232,0.343 0.298,0.536 0.067,0.194 0.099,0.383 0.099,0.567 0,0.51 -0.209,0.945 -0.627,1.301 l -0.077,0.077 c -0.214,0.184 -0.442,0.367 -0.681,0.551 -0.24,0.184 -0.493,0.358 -0.758,0.521 -0.603,0.358 -1.195,0.536 -1.777,0.536 -0.245,0 -0.49,-0.035 -0.735,-0.107 -0.184,-0.039 -0.355,-0.109 -0.513,-0.207 -0.158,-0.097 -0.294,-0.216 -0.406,-0.359 -0.122,0.102 -0.24,0.196 -0.352,0.283 -0.112,0.087 -0.24,0.177 -0.383,0.268 l 0.015,0 c -0.234,0.163 -0.459,0.302 -0.674,0.413 -0.214,0.113 -0.419,0.209 -0.612,0.291 -0.173,0.072 -0.358,0.122 -0.551,0.154 -0.191,0.027 -0.376,0.042 -0.549,0.042 z"
         id="path93"
         inkscape:connector-curvature="0"
         style="fill:#edebeb" />
      <path
         d="m 122.953,187.087 c -0.378,0 -0.699,-0.113 -0.964,-0.337 -0.245,-0.194 -0.414,-0.439 -0.506,-0.735 -0.092,-0.296 -0.097,-0.591 -0.015,-0.888 0,-0.011 0.005,-0.026 0.015,-0.046 0.01,-0.02 0.016,-0.035 0.016,-0.046 0,-0.01 0.005,-0.024 0.015,-0.046 -0.561,0.337 -1.072,0.593 -1.531,0.767 -0.194,0.071 -0.393,0.102 -0.597,0.091 -0.204,-0.01 -0.393,-0.056 -0.567,-0.137 -0.173,-0.082 -0.332,-0.197 -0.474,-0.345 -0.143,-0.147 -0.25,-0.318 -0.321,-0.512 -0.082,-0.193 -0.115,-0.393 -0.1,-0.597 0.016,-0.204 0.064,-0.396 0.145,-0.575 0.082,-0.178 0.197,-0.338 0.345,-0.481 0.148,-0.144 0.319,-0.25 0.513,-0.322 0.174,-0.061 0.467,-0.209 0.88,-0.445 0.414,-0.234 0.977,-0.638 1.692,-1.208 0.214,-0.174 0.411,-0.337 0.589,-0.491 0.179,-0.154 0.334,-0.291 0.467,-0.413 0.153,-0.143 0.296,-0.276 0.429,-0.398 0.419,-0.398 0.909,-0.526 1.47,-0.383 0.204,0.052 0.387,0.144 0.551,0.276 0.163,0.133 0.296,0.287 0.398,0.459 0.163,0.285 0.235,0.576 0.215,0.873 -0.02,0.296 -0.077,0.639 -0.169,1.026 -0.02,0.102 -0.044,0.201 -0.069,0.299 -0.026,0.097 -0.054,0.201 -0.084,0.313 0.326,-0.02 0.627,0.052 0.903,0.215 0.275,0.163 0.485,0.398 0.627,0.704 0.082,0.194 0.123,0.391 0.123,0.59 0,0.199 -0.033,0.39 -0.1,0.574 -0.067,0.185 -0.169,0.351 -0.306,0.498 -0.138,0.148 -0.304,0.264 -0.498,0.345 -0.337,0.154 -0.646,0.299 -0.926,0.436 -0.281,0.137 -0.526,0.262 -0.735,0.375 -0.209,0.113 -0.375,0.201 -0.498,0.268 -0.122,0.067 -0.189,0.099 -0.199,0.099 -0.244,0.13 -0.49,0.197 -0.734,0.197 z"
         id="path95"
         inkscape:connector-curvature="0"
         style="fill:#edebeb" />
      <path
         d="m 128.909,187.087 c -0.378,0 -0.699,-0.113 -0.964,-0.337 -0.245,-0.194 -0.414,-0.439 -0.506,-0.735 -0.092,-0.296 -0.097,-0.591 -0.015,-0.888 0,-0.011 0.005,-0.026 0.015,-0.046 0.01,-0.02 0.016,-0.035 0.016,-0.046 0,-0.01 0.005,-0.024 0.015,-0.046 -0.561,0.337 -1.072,0.593 -1.531,0.767 -0.194,0.071 -0.393,0.102 -0.597,0.091 -0.204,-0.01 -0.393,-0.056 -0.567,-0.137 -0.173,-0.082 -0.332,-0.197 -0.474,-0.345 -0.143,-0.147 -0.25,-0.318 -0.321,-0.512 -0.082,-0.193 -0.115,-0.393 -0.1,-0.597 0.016,-0.204 0.064,-0.396 0.145,-0.575 0.082,-0.178 0.197,-0.338 0.345,-0.481 0.148,-0.144 0.319,-0.25 0.513,-0.322 0.174,-0.061 0.467,-0.209 0.88,-0.445 0.414,-0.234 0.977,-0.638 1.692,-1.208 0.214,-0.174 0.411,-0.337 0.589,-0.491 0.179,-0.154 0.334,-0.291 0.467,-0.413 0.153,-0.143 0.296,-0.276 0.429,-0.398 0.419,-0.398 0.909,-0.526 1.47,-0.383 0.204,0.052 0.387,0.144 0.551,0.276 0.163,0.133 0.296,0.287 0.398,0.459 0.163,0.285 0.235,0.576 0.215,0.873 -0.02,0.296 -0.077,0.639 -0.169,1.026 -0.02,0.102 -0.044,0.201 -0.069,0.299 -0.026,0.097 -0.054,0.201 -0.084,0.313 0.326,-0.02 0.627,0.052 0.903,0.215 0.275,0.163 0.485,0.398 0.627,0.704 0.082,0.194 0.123,0.391 0.123,0.59 0,0.199 -0.033,0.39 -0.1,0.574 -0.067,0.185 -0.169,0.351 -0.306,0.498 -0.138,0.148 -0.304,0.264 -0.498,0.345 -0.337,0.154 -0.646,0.299 -0.926,0.436 -0.281,0.137 -0.526,0.262 -0.735,0.375 -0.209,0.113 -0.375,0.201 -0.498,0.268 -0.122,0.067 -0.189,0.099 -0.199,0.099 -0.244,0.13 -0.49,0.197 -0.734,0.197 z"
         id="path97"
         inkscape:connector-curvature="0"
         style="fill:#edebeb" />
      <path
         d="m 136.718,186.933 c -0.143,0 -0.301,-0.026 -0.475,-0.076 -0.255,-0.061 -0.474,-0.177 -0.658,-0.345 -0.184,-0.169 -0.321,-0.37 -0.414,-0.605 -0.163,-0.387 -0.158,-0.826 0.016,-1.316 0.061,-0.174 0.153,-0.378 0.276,-0.613 0.02,-0.041 0.043,-0.084 0.069,-0.131 0.025,-0.046 0.054,-0.094 0.084,-0.145 -0.235,0.122 -0.465,0.253 -0.689,0.391 -0.225,0.137 -0.454,0.268 -0.689,0.39 -0.419,0.256 -0.819,0.487 -1.202,0.696 -0.383,0.209 -0.737,0.386 -1.064,0.529 -0.194,0.091 -0.39,0.137 -0.589,0.137 -0.199,0 -0.391,-0.035 -0.574,-0.107 -0.184,-0.071 -0.349,-0.175 -0.498,-0.314 -0.148,-0.137 -0.263,-0.303 -0.345,-0.498 -0.092,-0.193 -0.138,-0.39 -0.138,-0.589 0,-0.2 0.036,-0.39 0.107,-0.575 0.071,-0.184 0.176,-0.349 0.314,-0.498 0.137,-0.148 0.304,-0.262 0.498,-0.344 0.235,-0.113 0.523,-0.262 0.865,-0.451 0.342,-0.189 0.707,-0.396 1.094,-0.621 0.449,-0.265 0.922,-0.538 1.416,-0.818 0.495,-0.281 0.983,-0.523 1.463,-0.727 0.541,-0.266 1.046,-0.445 1.516,-0.537 0.326,-0.082 0.63,-0.126 0.911,-0.137 0.281,-0.01 0.554,0.02 0.82,0.092 0.561,0.163 0.944,0.51 1.148,1.041 0.154,0.387 0.176,0.765 0.069,1.132 -0.107,0.367 -0.248,0.715 -0.421,1.041 0.031,-0.01 0.064,-0.018 0.1,-0.023 0.035,-0.005 0.069,-0.018 0.099,-0.038 0.194,-0.071 0.39,-0.099 0.589,-0.084 0.199,0.015 0.388,0.064 0.567,0.145 0.178,0.082 0.336,0.197 0.474,0.345 0.138,0.147 0.243,0.318 0.314,0.512 0.071,0.204 0.102,0.405 0.092,0.605 -0.01,0.198 -0.056,0.387 -0.138,0.567 -0.082,0.178 -0.196,0.336 -0.344,0.474 -0.148,0.137 -0.324,0.242 -0.529,0.314 -0.48,0.173 -0.918,0.329 -1.317,0.466 -0.398,0.139 -0.75,0.258 -1.056,0.36 -0.429,0.122 -0.776,0.212 -1.041,0.268 -0.266,0.059 -0.506,0.087 -0.72,0.087 z"
         id="path99"
         inkscape:connector-curvature="0"
         style="fill:#edebeb" />
      <path
         d="m 145.737,186.933 c -0.143,0 -0.301,-0.026 -0.475,-0.076 -0.255,-0.061 -0.474,-0.177 -0.658,-0.345 -0.184,-0.169 -0.322,-0.37 -0.414,-0.605 -0.163,-0.387 -0.158,-0.826 0.016,-1.316 0.061,-0.174 0.153,-0.378 0.276,-0.613 0.02,-0.041 0.043,-0.084 0.069,-0.131 0.025,-0.046 0.054,-0.094 0.084,-0.145 -0.235,0.122 -0.465,0.253 -0.689,0.391 -0.225,0.137 -0.454,0.268 -0.689,0.39 -0.419,0.256 -0.819,0.487 -1.202,0.696 -0.383,0.209 -0.737,0.386 -1.064,0.529 -0.194,0.091 -0.39,0.137 -0.589,0.137 -0.199,0 -0.391,-0.035 -0.574,-0.107 -0.184,-0.071 -0.349,-0.175 -0.498,-0.314 -0.148,-0.137 -0.263,-0.303 -0.345,-0.498 -0.092,-0.193 -0.138,-0.39 -0.138,-0.589 0,-0.2 0.036,-0.39 0.107,-0.575 0.071,-0.184 0.176,-0.349 0.314,-0.498 0.137,-0.148 0.304,-0.262 0.498,-0.344 0.235,-0.113 0.523,-0.262 0.865,-0.451 0.342,-0.189 0.707,-0.396 1.094,-0.621 0.449,-0.265 0.922,-0.538 1.416,-0.818 0.495,-0.281 0.983,-0.523 1.463,-0.727 0.541,-0.266 1.046,-0.445 1.516,-0.537 0.326,-0.082 0.63,-0.126 0.911,-0.137 0.281,-0.01 0.554,0.02 0.82,0.092 0.561,0.163 0.944,0.51 1.148,1.041 0.154,0.387 0.176,0.765 0.069,1.132 -0.107,0.367 -0.248,0.715 -0.421,1.041 0.031,-0.01 0.064,-0.018 0.1,-0.023 0.035,-0.005 0.069,-0.018 0.099,-0.038 0.194,-0.071 0.39,-0.099 0.589,-0.084 0.199,0.015 0.388,0.064 0.567,0.145 0.178,0.082 0.336,0.197 0.474,0.345 0.138,0.147 0.243,0.318 0.314,0.512 0.071,0.204 0.102,0.405 0.092,0.605 -0.01,0.198 -0.056,0.387 -0.138,0.567 -0.082,0.178 -0.196,0.336 -0.344,0.474 -0.148,0.137 -0.324,0.242 -0.529,0.314 -0.48,0.173 -0.918,0.329 -1.317,0.466 -0.398,0.139 -0.75,0.258 -1.056,0.36 -0.429,0.122 -0.776,0.212 -1.041,0.268 -0.266,0.059 -0.506,0.087 -0.72,0.087 z"
         id="path101"
         inkscape:connector-curvature="0"
         style="fill:#edebeb" />
      <path
         d="m 152.903,187.087 c -0.378,0 -0.699,-0.113 -0.964,-0.337 -0.245,-0.194 -0.414,-0.439 -0.506,-0.735 -0.092,-0.296 -0.097,-0.591 -0.015,-0.888 0,-0.011 0.005,-0.026 0.015,-0.046 0.01,-0.02 0.016,-0.035 0.016,-0.046 0,-0.01 0.005,-0.024 0.015,-0.046 -0.561,0.337 -1.072,0.593 -1.531,0.767 -0.194,0.071 -0.393,0.102 -0.597,0.091 -0.204,-0.01 -0.393,-0.056 -0.567,-0.137 -0.173,-0.082 -0.332,-0.197 -0.474,-0.345 -0.143,-0.147 -0.25,-0.318 -0.321,-0.512 -0.082,-0.193 -0.115,-0.393 -0.1,-0.597 0.016,-0.204 0.064,-0.396 0.145,-0.575 0.082,-0.178 0.197,-0.338 0.345,-0.481 0.148,-0.144 0.319,-0.25 0.513,-0.322 0.174,-0.061 0.467,-0.209 0.88,-0.445 0.414,-0.234 0.977,-0.638 1.692,-1.208 0.214,-0.174 0.411,-0.337 0.589,-0.491 0.178,-0.154 0.334,-0.291 0.467,-0.413 0.153,-0.143 0.296,-0.276 0.429,-0.398 0.419,-0.398 0.909,-0.526 1.47,-0.383 0.204,0.052 0.387,0.144 0.551,0.276 0.163,0.133 0.296,0.287 0.398,0.459 0.163,0.285 0.235,0.576 0.215,0.873 -0.02,0.296 -0.077,0.639 -0.169,1.026 -0.02,0.102 -0.044,0.201 -0.069,0.299 -0.026,0.097 -0.054,0.201 -0.084,0.313 0.326,-0.02 0.627,0.052 0.903,0.215 0.275,0.163 0.485,0.398 0.627,0.704 0.082,0.194 0.123,0.391 0.123,0.59 0,0.199 -0.033,0.39 -0.1,0.574 -0.067,0.185 -0.169,0.351 -0.306,0.498 -0.138,0.148 -0.304,0.264 -0.498,0.345 -0.337,0.154 -0.646,0.299 -0.926,0.436 -0.281,0.137 -0.526,0.262 -0.735,0.375 -0.209,0.113 -0.375,0.201 -0.498,0.268 -0.122,0.067 -0.189,0.099 -0.199,0.099 -0.244,0.13 -0.49,0.197 -0.734,0.197 z"
         id="path103"
         inkscape:connector-curvature="0"
         style="fill:#edebeb" />
      <path
         d="m 158.859,187.087 c -0.378,0 -0.699,-0.113 -0.964,-0.337 -0.245,-0.194 -0.414,-0.439 -0.506,-0.735 -0.092,-0.296 -0.097,-0.591 -0.015,-0.888 0,-0.011 0.005,-0.026 0.015,-0.046 0.01,-0.02 0.016,-0.035 0.016,-0.046 0,-0.01 0.005,-0.024 0.015,-0.046 -0.561,0.337 -1.072,0.593 -1.531,0.767 -0.194,0.071 -0.393,0.102 -0.597,0.091 -0.204,-0.01 -0.393,-0.056 -0.567,-0.137 -0.173,-0.082 -0.332,-0.197 -0.474,-0.345 -0.143,-0.147 -0.25,-0.318 -0.321,-0.512 -0.082,-0.193 -0.115,-0.393 -0.1,-0.597 0.016,-0.204 0.064,-0.396 0.145,-0.575 0.082,-0.178 0.197,-0.338 0.345,-0.481 0.148,-0.144 0.319,-0.25 0.513,-0.322 0.174,-0.061 0.467,-0.209 0.88,-0.445 0.414,-0.234 0.977,-0.638 1.692,-1.208 0.214,-0.174 0.411,-0.337 0.589,-0.491 0.178,-0.154 0.334,-0.291 0.467,-0.413 0.153,-0.143 0.296,-0.276 0.429,-0.398 0.419,-0.398 0.909,-0.526 1.47,-0.383 0.204,0.052 0.387,0.144 0.551,0.276 0.163,0.133 0.296,0.287 0.398,0.459 0.163,0.285 0.235,0.576 0.215,0.873 -0.02,0.296 -0.077,0.639 -0.169,1.026 -0.02,0.102 -0.043,0.201 -0.069,0.299 -0.026,0.097 -0.054,0.201 -0.084,0.313 0.326,-0.02 0.627,0.052 0.903,0.215 0.275,0.163 0.485,0.398 0.627,0.704 0.082,0.194 0.123,0.391 0.123,0.59 0,0.199 -0.033,0.39 -0.1,0.574 -0.067,0.185 -0.169,0.351 -0.306,0.498 -0.138,0.148 -0.304,0.264 -0.498,0.345 -0.337,0.154 -0.646,0.299 -0.926,0.436 -0.281,0.137 -0.526,0.262 -0.735,0.375 -0.209,0.113 -0.375,0.201 -0.498,0.268 -0.122,0.067 -0.189,0.099 -0.199,0.099 -0.244,0.13 -0.49,0.197 -0.734,0.197 z"
         id="path105"
         inkscape:connector-curvature="0"
         style="fill:#edebeb" />
      <path
         d="m 174.109,186.933 c -0.143,0 -0.301,-0.026 -0.475,-0.076 -0.255,-0.061 -0.474,-0.177 -0.658,-0.345 -0.184,-0.169 -0.322,-0.37 -0.414,-0.605 -0.163,-0.387 -0.158,-0.826 0.016,-1.316 0.061,-0.174 0.153,-0.378 0.276,-0.613 0.02,-0.041 0.043,-0.084 0.069,-0.131 0.025,-0.046 0.054,-0.094 0.084,-0.145 -0.235,0.122 -0.465,0.253 -0.689,0.391 -0.225,0.137 -0.454,0.268 -0.689,0.39 -0.419,0.256 -0.819,0.487 -1.202,0.696 -0.383,0.209 -0.737,0.386 -1.064,0.529 -0.194,0.091 -0.39,0.137 -0.589,0.137 -0.199,0 -0.391,-0.035 -0.574,-0.107 -0.184,-0.071 -0.349,-0.175 -0.498,-0.314 -0.148,-0.137 -0.263,-0.303 -0.345,-0.498 -0.092,-0.193 -0.138,-0.39 -0.138,-0.589 0,-0.2 0.036,-0.39 0.107,-0.575 0.071,-0.184 0.176,-0.349 0.314,-0.498 0.137,-0.148 0.304,-0.262 0.498,-0.344 0.235,-0.113 0.523,-0.262 0.865,-0.451 0.342,-0.189 0.707,-0.396 1.094,-0.621 0.449,-0.265 0.922,-0.538 1.416,-0.818 0.495,-0.281 0.983,-0.523 1.463,-0.727 0.541,-0.266 1.046,-0.445 1.516,-0.537 0.326,-0.082 0.63,-0.126 0.911,-0.137 0.281,-0.01 0.554,0.02 0.82,0.092 0.561,0.163 0.944,0.51 1.148,1.041 0.154,0.387 0.176,0.765 0.069,1.132 -0.107,0.367 -0.248,0.715 -0.421,1.041 0.031,-0.01 0.064,-0.018 0.1,-0.023 0.035,-0.005 0.069,-0.018 0.099,-0.038 0.194,-0.071 0.39,-0.099 0.589,-0.084 0.199,0.015 0.388,0.064 0.567,0.145 0.178,0.082 0.336,0.197 0.474,0.345 0.138,0.147 0.243,0.318 0.314,0.512 0.071,0.204 0.102,0.405 0.092,0.605 -0.01,0.198 -0.056,0.387 -0.138,0.567 -0.082,0.178 -0.196,0.336 -0.344,0.474 -0.148,0.137 -0.324,0.242 -0.529,0.314 -0.48,0.173 -0.918,0.329 -1.317,0.466 -0.398,0.139 -0.75,0.258 -1.056,0.36 -0.429,0.122 -0.776,0.212 -1.041,0.268 -0.266,0.059 -0.506,0.087 -0.72,0.087 z"
         id="path107"
         inkscape:connector-curvature="0"
         style="fill:#edebeb" />
      <path
         d="m 178.901,188.082 c -0.112,0 -0.217,-0.003 -0.314,-0.008 -0.097,-0.005 -0.171,-0.012 -0.222,-0.023 -0.286,-0.082 -0.542,-0.212 -0.766,-0.39 -0.224,-0.178 -0.393,-0.396 -0.505,-0.651 -0.071,-0.143 -0.118,-0.273 -0.138,-0.39 -0.02,-0.117 -0.031,-0.238 -0.031,-0.36 0,-0.163 0.015,-0.321 0.046,-0.474 -0.092,-0.061 -0.189,-0.128 -0.291,-0.198 -0.102,-0.072 -0.179,-0.148 -0.23,-0.23 -0.245,-0.326 -0.368,-0.674 -0.368,-1.041 0,-0.245 0.054,-0.477 0.16,-0.697 0.107,-0.219 0.253,-0.416 0.437,-0.589 0.051,-0.052 0.145,-0.148 0.283,-0.291 0.138,-0.143 0.263,-0.285 0.375,-0.43 l 0.307,-0.337 c 0.143,-0.152 0.288,-0.309 0.436,-0.466 0.147,-0.158 0.293,-0.309 0.436,-0.451 0.163,-0.143 0.306,-0.266 0.429,-0.368 0.122,-0.102 0.23,-0.184 0.322,-0.245 0.53,-0.326 1.081,-0.428 1.654,-0.306 0.592,0.152 0.985,0.485 1.179,0.995 l -0.015,-0.015 c 0.041,0.091 0.074,0.181 0.099,0.268 0.026,0.087 0.044,0.175 0.054,0.268 0.143,-0.154 0.271,-0.299 0.383,-0.436 0.112,-0.137 0.215,-0.262 0.307,-0.375 l 0.214,-0.245 c 0.02,-0.02 0.036,-0.041 0.046,-0.061 0.01,-0.011 0.02,-0.026 0.031,-0.046 0.234,-0.276 0.513,-0.472 0.835,-0.59 0.322,-0.117 0.645,-0.135 0.972,-0.053 0.224,0.061 0.432,0.174 0.621,0.337 0.188,0.163 0.345,0.352 0.467,0.565 0.143,0.328 0.207,0.605 0.191,0.835 -0.015,0.23 -0.033,0.386 -0.053,0.468 -0.011,0.05 -0.023,0.099 -0.039,0.145 -0.015,0.046 -0.028,0.09 -0.038,0.13 l -0.092,0.291 -0.016,0.045 c 0.204,0.02 0.406,0.077 0.605,0.169 0.199,0.092 0.37,0.22 0.513,0.383 0.133,0.163 0.232,0.343 0.298,0.536 0.067,0.194 0.099,0.383 0.099,0.567 0,0.51 -0.209,0.945 -0.627,1.301 l -0.077,0.077 c -0.214,0.184 -0.442,0.367 -0.681,0.551 -0.24,0.184 -0.493,0.358 -0.758,0.521 -0.603,0.358 -1.195,0.536 -1.777,0.536 -0.245,0 -0.49,-0.035 -0.735,-0.107 -0.184,-0.039 -0.355,-0.109 -0.513,-0.207 -0.158,-0.097 -0.294,-0.216 -0.406,-0.359 -0.122,0.102 -0.24,0.196 -0.352,0.283 -0.112,0.087 -0.24,0.177 -0.383,0.268 l 0.015,0 c -0.234,0.163 -0.459,0.302 -0.674,0.413 -0.214,0.113 -0.419,0.209 -0.612,0.291 -0.173,0.072 -0.358,0.122 -0.551,0.154 -0.193,0.032 -0.376,0.042 -0.55,0.042 z"
         id="path109"
         inkscape:connector-curvature="0"
         style="fill:#edebeb" />
      <path
         d="m 187.048,188.082 c -0.112,0 -0.217,-0.003 -0.314,-0.008 -0.097,-0.005 -0.171,-0.012 -0.222,-0.023 -0.286,-0.082 -0.542,-0.212 -0.766,-0.39 -0.224,-0.178 -0.393,-0.396 -0.505,-0.651 -0.071,-0.143 -0.118,-0.273 -0.138,-0.39 -0.02,-0.117 -0.031,-0.238 -0.031,-0.36 0,-0.163 0.015,-0.321 0.046,-0.474 -0.092,-0.061 -0.189,-0.128 -0.291,-0.198 -0.102,-0.072 -0.179,-0.148 -0.23,-0.23 -0.245,-0.326 -0.368,-0.674 -0.368,-1.041 0,-0.245 0.054,-0.477 0.16,-0.697 0.107,-0.219 0.253,-0.416 0.437,-0.589 0.051,-0.052 0.145,-0.148 0.283,-0.291 0.138,-0.143 0.263,-0.285 0.375,-0.43 l 0.307,-0.337 c 0.143,-0.152 0.288,-0.309 0.436,-0.466 0.147,-0.158 0.293,-0.309 0.436,-0.451 0.163,-0.143 0.306,-0.266 0.429,-0.368 0.122,-0.102 0.23,-0.184 0.322,-0.245 0.53,-0.326 1.081,-0.428 1.654,-0.306 0.592,0.152 0.985,0.485 1.179,0.995 l -0.015,-0.015 c 0.041,0.091 0.074,0.181 0.099,0.268 0.026,0.087 0.044,0.175 0.054,0.268 0.143,-0.154 0.271,-0.299 0.383,-0.436 0.112,-0.137 0.215,-0.262 0.307,-0.375 l 0.214,-0.245 c 0.02,-0.02 0.036,-0.041 0.046,-0.061 0.01,-0.011 0.02,-0.026 0.031,-0.046 0.234,-0.276 0.513,-0.472 0.835,-0.59 0.321,-0.117 0.645,-0.135 0.972,-0.053 0.224,0.061 0.432,0.174 0.621,0.337 0.188,0.163 0.345,0.352 0.467,0.565 0.143,0.328 0.207,0.605 0.191,0.835 -0.015,0.23 -0.033,0.386 -0.053,0.468 -0.011,0.05 -0.023,0.099 -0.039,0.145 -0.015,0.046 -0.028,0.09 -0.038,0.13 l -0.092,0.291 -0.016,0.045 c 0.204,0.02 0.406,0.077 0.605,0.169 0.199,0.092 0.37,0.22 0.513,0.383 0.133,0.163 0.232,0.343 0.298,0.536 0.067,0.194 0.099,0.383 0.099,0.567 0,0.51 -0.209,0.945 -0.627,1.301 l -0.077,0.077 c -0.214,0.184 -0.442,0.367 -0.681,0.551 -0.24,0.184 -0.493,0.358 -0.758,0.521 -0.603,0.358 -1.195,0.536 -1.777,0.536 -0.245,0 -0.49,-0.035 -0.735,-0.107 -0.184,-0.039 -0.355,-0.109 -0.513,-0.207 -0.158,-0.097 -0.294,-0.216 -0.406,-0.359 -0.122,0.102 -0.24,0.196 -0.352,0.283 -0.112,0.087 -0.24,0.177 -0.383,0.268 l 0.015,0 c -0.234,0.163 -0.459,0.302 -0.674,0.413 -0.214,0.113 -0.419,0.209 -0.612,0.291 -0.173,0.072 -0.358,0.122 -0.551,0.154 -0.193,0.027 -0.377,0.042 -0.55,0.042 z"
         id="path111"
         inkscape:connector-curvature="0"
         style="fill:#edebeb" />
    </g>
    <g
       transform="matrix(1.2963308,0,0,2.2993977,-55.311661,189.13486)"
       id="g113">
      <path
         d="m 245.953,282.132 c -0.26,0 -0.548,-0.046 -0.863,-0.14 -0.464,-0.11 -0.863,-0.319 -1.197,-0.625 -0.334,-0.307 -0.585,-0.673 -0.752,-1.1 -0.297,-0.706 -0.288,-1.503 0.028,-2.395 0.111,-0.315 0.279,-0.686 0.501,-1.113 0.037,-0.073 0.079,-0.152 0.126,-0.237 0.046,-0.083 0.097,-0.171 0.153,-0.264 -0.428,0.222 -0.845,0.459 -1.253,0.71 -0.408,0.25 -0.827,0.487 -1.253,0.71 -0.761,0.465 -1.489,0.886 -2.185,1.267 -0.696,0.381 -1.341,0.7 -1.935,0.96 -0.353,0.167 -0.71,0.251 -1.072,0.251 -0.362,0 -0.71,-0.065 -1.044,-0.196 -0.334,-0.129 -0.636,-0.319 -0.905,-0.57 -0.268,-0.251 -0.477,-0.552 -0.626,-0.905 -0.167,-0.352 -0.251,-0.71 -0.251,-1.071 0,-0.363 0.065,-0.711 0.195,-1.044 0.13,-0.334 0.32,-0.636 0.57,-0.905 0.251,-0.269 0.553,-0.477 0.905,-0.627 0.427,-0.204 0.951,-0.477 1.573,-0.821 0.621,-0.344 1.285,-0.719 1.99,-1.127 0.817,-0.483 1.675,-0.979 2.575,-1.49 0.9,-0.511 1.786,-0.952 2.659,-1.323 0.984,-0.483 1.902,-0.807 2.757,-0.975 0.593,-0.148 1.145,-0.231 1.656,-0.25 0.511,-0.019 1.006,0.037 1.49,0.167 1.02,0.296 1.716,0.928 2.088,1.892 0.277,0.706 0.321,1.392 0.125,2.061 -0.196,0.667 -0.451,1.3 -0.767,1.894 0.057,-0.019 0.117,-0.033 0.182,-0.042 0.065,-0.009 0.125,-0.033 0.181,-0.069 0.352,-0.13 0.71,-0.181 1.073,-0.154 0.362,0.029 0.704,0.116 1.029,0.265 0.325,0.148 0.613,0.358 0.863,0.625 0.25,0.269 0.44,0.58 0.571,0.933 0.13,0.372 0.185,0.738 0.167,1.1 -0.019,0.363 -0.102,0.706 -0.251,1.03 -0.148,0.325 -0.356,0.613 -0.625,0.863 -0.269,0.25 -0.59,0.442 -0.961,0.571 -0.873,0.315 -1.671,0.598 -2.394,0.85 -0.723,0.25 -1.365,0.469 -1.922,0.654 -0.778,0.223 -1.41,0.385 -1.892,0.487 -0.483,0.101 -0.919,0.153 -1.309,0.153 z"
         id="path115"
         inkscape:connector-curvature="0"
         style="fill:#f8f8f1" />
      <path
         d="m 254.668,284.22 c -0.205,0 -0.394,-0.005 -0.571,-0.014 -0.177,-0.01 -0.311,-0.024 -0.405,-0.042 -0.519,-0.15 -0.983,-0.386 -1.392,-0.71 -0.408,-0.325 -0.712,-0.72 -0.918,-1.184 -0.129,-0.26 -0.213,-0.496 -0.251,-0.71 -0.035,-0.213 -0.054,-0.431 -0.054,-0.654 0,-0.296 0.027,-0.585 0.083,-0.863 -0.167,-0.111 -0.344,-0.232 -0.529,-0.362 -0.185,-0.13 -0.325,-0.269 -0.419,-0.419 -0.445,-0.593 -0.667,-1.225 -0.667,-1.892 0,-0.446 0.098,-0.867 0.292,-1.267 0.196,-0.398 0.459,-0.756 0.794,-1.073 0.092,-0.092 0.264,-0.268 0.515,-0.529 0.25,-0.26 0.477,-0.519 0.681,-0.779 l 0.557,-0.613 c 0.26,-0.277 0.525,-0.56 0.794,-0.848 0.269,-0.288 0.533,-0.561 0.794,-0.821 0.296,-0.26 0.556,-0.483 0.779,-0.669 0.223,-0.185 0.417,-0.334 0.585,-0.446 0.965,-0.593 1.967,-0.779 3.007,-0.556 1.075,0.279 1.79,0.881 2.144,1.809 l -0.027,-0.029 c 0.073,0.167 0.133,0.33 0.179,0.488 0.046,0.158 0.079,0.319 0.098,0.487 0.26,-0.279 0.492,-0.542 0.696,-0.793 0.204,-0.251 0.39,-0.479 0.557,-0.682 l 0.389,-0.446 c 0.038,-0.037 0.065,-0.073 0.084,-0.111 0.019,-0.018 0.037,-0.046 0.056,-0.083 0.427,-0.502 0.933,-0.859 1.517,-1.073 0.585,-0.212 1.173,-0.245 1.769,-0.097 0.408,0.111 0.783,0.315 1.127,0.612 0.344,0.298 0.627,0.64 0.85,1.03 0.258,0.594 0.375,1.1 0.348,1.517 -0.029,0.417 -0.061,0.701 -0.098,0.85 -0.019,0.092 -0.042,0.181 -0.071,0.264 -0.027,0.084 -0.05,0.163 -0.068,0.237 l -0.169,0.53 -0.027,0.083 c 0.371,0.037 0.738,0.139 1.1,0.306 0.363,0.167 0.673,0.4 0.933,0.696 0.241,0.298 0.423,0.623 0.542,0.975 0.121,0.353 0.182,0.696 0.182,1.03 0,0.928 -0.381,1.717 -1.142,2.367 l -0.139,0.139 c -0.39,0.334 -0.803,0.669 -1.24,1.002 -0.435,0.334 -0.894,0.65 -1.378,0.947 -1.096,0.65 -2.171,0.973 -3.229,0.973 -0.446,0 -0.89,-0.065 -1.336,-0.194 -0.334,-0.073 -0.646,-0.2 -0.933,-0.375 -0.288,-0.177 -0.534,-0.394 -0.738,-0.655 -0.223,0.186 -0.436,0.358 -0.64,0.515 -0.204,0.158 -0.436,0.321 -0.696,0.488 l 0.027,0 c -0.427,0.296 -0.835,0.546 -1.223,0.752 -0.392,0.204 -0.761,0.379 -1.115,0.529 -0.315,0.129 -0.65,0.222 -1.002,0.277 -0.352,0.058 -0.687,0.086 -1.002,0.086 z"
         id="path117"
         inkscape:connector-curvature="0"
         style="fill:#f8f8f1" />
      <path
         d="m 271.122,281.575 c -0.223,0 -0.474,-0.027 -0.753,-0.083 -0.427,-0.111 -0.807,-0.302 -1.142,-0.571 -0.333,-0.269 -0.602,-0.589 -0.806,-0.961 -0.521,0.205 -1.062,0.247 -1.63,0.126 -0.565,-0.121 -1.052,-0.413 -1.46,-0.878 -0.261,-0.277 -0.446,-0.593 -0.557,-0.946 -0.111,-0.352 -0.152,-0.71 -0.125,-1.071 0.027,-0.363 0.12,-0.706 0.277,-1.03 0.157,-0.324 0.377,-0.617 0.655,-0.877 0.204,-0.167 0.421,-0.362 0.654,-0.585 0.233,-0.223 0.479,-0.464 0.738,-0.725 0.446,-0.445 0.914,-0.894 1.406,-1.35 0.492,-0.454 0.971,-0.867 1.434,-1.238 0.315,-0.242 0.616,-0.455 0.904,-0.64 0.288,-0.186 0.561,-0.344 0.821,-0.474 0.965,-0.464 1.911,-0.593 2.841,-0.389 0.5,0.148 0.941,0.398 1.321,0.752 0.381,0.352 0.673,0.779 0.878,1.281 0.258,0.742 0.25,1.521 -0.029,2.338 -0.037,0.094 -0.075,0.186 -0.111,0.279 -0.037,0.092 -0.083,0.194 -0.14,0.306 0.669,0.315 1.151,0.836 1.449,1.559 0.129,0.371 0.185,0.742 0.166,1.113 -0.019,0.371 -0.101,0.719 -0.25,1.044 -0.149,0.325 -0.358,0.613 -0.625,0.863 -0.269,0.25 -0.59,0.442 -0.961,0.571 -0.594,0.223 -1.127,0.423 -1.601,0.598 -0.473,0.177 -0.877,0.321 -1.211,0.432 -0.204,0.073 -0.381,0.139 -0.529,0.194 -0.148,0.055 -0.269,0.102 -0.362,0.139 -0.186,0.038 -0.381,0.084 -0.585,0.14 -0.205,0.056 -0.428,0.083 -0.667,0.083 z"
         id="path119"
         inkscape:connector-curvature="0"
         style="fill:#f8f8f1" />
      <path
         d="m 277.134,284.22 c -0.205,0 -0.394,-0.005 -0.571,-0.014 -0.175,-0.01 -0.311,-0.024 -0.404,-0.042 -0.519,-0.15 -0.984,-0.386 -1.392,-0.71 -0.408,-0.325 -0.714,-0.72 -0.919,-1.184 -0.129,-0.26 -0.212,-0.496 -0.25,-0.71 -0.037,-0.213 -0.056,-0.431 -0.056,-0.654 0,-0.296 0.029,-0.585 0.083,-0.863 -0.166,-0.111 -0.343,-0.232 -0.527,-0.362 -0.186,-0.13 -0.326,-0.269 -0.419,-0.419 -0.446,-0.593 -0.669,-1.225 -0.669,-1.892 0,-0.446 0.098,-0.867 0.294,-1.267 0.194,-0.398 0.459,-0.756 0.794,-1.073 0.092,-0.092 0.264,-0.268 0.514,-0.529 0.25,-0.26 0.479,-0.519 0.682,-0.779 l 0.557,-0.613 c 0.258,-0.277 0.525,-0.56 0.794,-0.848 0.268,-0.288 0.533,-0.561 0.793,-0.821 0.298,-0.26 0.556,-0.483 0.779,-0.669 0.223,-0.185 0.419,-0.334 0.585,-0.446 0.965,-0.593 1.968,-0.779 3.007,-0.556 1.077,0.279 1.792,0.881 2.145,1.809 l -0.029,-0.029 c 0.075,0.167 0.135,0.33 0.181,0.488 0.046,0.158 0.079,0.319 0.098,0.487 0.258,-0.279 0.492,-0.542 0.696,-0.793 0.204,-0.251 0.389,-0.479 0.557,-0.682 l 0.389,-0.446 c 0.037,-0.037 0.065,-0.073 0.084,-0.111 0.018,-0.018 0.035,-0.046 0.054,-0.083 0.427,-0.502 0.933,-0.859 1.517,-1.073 0.585,-0.212 1.175,-0.245 1.769,-0.097 0.408,0.111 0.784,0.315 1.127,0.612 0.344,0.298 0.628,0.64 0.85,1.03 0.26,0.594 0.377,1.1 0.348,1.517 -0.029,0.417 -0.061,0.701 -0.097,0.85 -0.019,0.092 -0.043,0.181 -0.071,0.264 -0.027,0.084 -0.052,0.163 -0.069,0.237 l -0.167,0.53 -0.027,0.083 c 0.37,0.037 0.737,0.139 1.098,0.306 0.363,0.167 0.674,0.4 0.933,0.696 0.242,0.298 0.423,0.623 0.544,0.975 0.12,0.353 0.181,0.696 0.181,1.03 0,0.928 -0.381,1.717 -1.141,2.367 l -0.14,0.139 c -0.39,0.334 -0.803,0.669 -1.238,1.002 -0.436,0.334 -0.896,0.65 -1.378,0.947 -1.096,0.65 -2.172,0.973 -3.23,0.973 -0.446,0 -0.89,-0.065 -1.335,-0.194 -0.334,-0.073 -0.647,-0.2 -0.934,-0.375 -0.287,-0.177 -0.534,-0.394 -0.738,-0.655 -0.223,0.186 -0.435,0.358 -0.639,0.515 -0.205,0.158 -0.438,0.321 -0.696,0.488 l 0.027,0 c -0.427,0.296 -0.835,0.546 -1.225,0.752 -0.39,0.204 -0.761,0.379 -1.113,0.529 -0.315,0.129 -0.65,0.222 -1.003,0.277 -0.353,0.058 -0.687,0.086 -1.003,0.086 z"
         id="path121"
         inkscape:connector-curvature="0"
         style="fill:#f8f8f1" />
    </g>
    <g
       transform="matrix(1.2963308,0,0,2.2993977,-55.311661,189.13486)"
       id="g123">
      <path
         d="m 320.561,237.828 c -0.045,0 -0.088,-0.013 -0.127,-0.038 -0.123,-0.053 -0.21,-0.2 -0.263,-0.447 -0.038,-0.219 -0.028,-0.466 0.03,-0.738 0.058,-0.272 0.142,-0.578 0.253,-0.913 0.039,-0.118 0.076,-0.236 0.112,-0.361 0.035,-0.122 0.066,-0.236 0.092,-0.34 0.02,-0.053 0.036,-0.118 0.049,-0.194 -0.194,-0.065 -0.42,-0.082 -0.675,-0.049 -0.256,0.032 -0.543,0.133 -0.861,0.299 -0.285,0.143 -0.586,0.329 -0.904,0.555 -0.317,0.228 -0.655,0.496 -1.01,0.808 -0.072,0.063 -0.142,0.067 -0.214,0.008 -0.072,-0.057 -0.123,-0.158 -0.156,-0.302 -0.038,-0.141 -0.041,-0.291 -0.009,-0.447 0.033,-0.154 0.084,-0.266 0.156,-0.329 0.369,-0.325 0.717,-0.605 1.044,-0.846 0.328,-0.24 0.643,-0.43 0.948,-0.574 0.797,-0.401 1.448,-0.466 1.953,-0.194 0.15,0.078 0.253,0.259 0.311,0.544 0.059,0.297 0.045,0.618 -0.039,0.962 -0.084,0.344 -0.185,0.702 -0.301,1.078 -0.014,0.027 -0.024,0.059 -0.035,0.099 -0.009,0.038 -0.021,0.084 -0.034,0.135 0.149,-0.065 0.368,-0.194 0.656,-0.388 0.289,-0.194 0.692,-0.479 1.211,-0.856 0.071,-0.051 0.143,-0.042 0.218,0.03 0.075,0.072 0.124,0.186 0.151,0.34 0.033,0.143 0.033,0.289 0,0.439 -0.033,0.148 -0.091,0.255 -0.175,0.321 -0.298,0.207 -0.57,0.394 -0.816,0.563 -0.247,0.169 -0.467,0.31 -0.661,0.428 -0.266,0.156 -0.465,0.262 -0.598,0.321 -0.133,0.059 -0.235,0.086 -0.306,0.086 z"
         id="path125"
         inkscape:connector-curvature="0"
         style="fill:#f8f8f1" />
      <path
         d="m 331.008,237.828 c -0.045,0 -0.088,-0.013 -0.127,-0.038 -0.123,-0.053 -0.21,-0.2 -0.263,-0.447 -0.038,-0.219 -0.028,-0.466 0.03,-0.738 0.058,-0.272 0.142,-0.578 0.253,-0.913 0.039,-0.118 0.076,-0.236 0.112,-0.361 0.035,-0.122 0.066,-0.236 0.092,-0.34 0.02,-0.053 0.036,-0.118 0.048,-0.194 -0.194,-0.065 -0.42,-0.082 -0.675,-0.049 -0.256,0.032 -0.543,0.133 -0.86,0.299 -0.285,0.143 -0.586,0.329 -0.904,0.555 -0.317,0.228 -0.655,0.496 -1.01,0.808 -0.072,0.063 -0.142,0.067 -0.214,0.008 -0.072,-0.057 -0.123,-0.158 -0.156,-0.302 -0.038,-0.141 -0.041,-0.291 -0.009,-0.447 0.033,-0.154 0.084,-0.266 0.156,-0.329 0.369,-0.325 0.717,-0.605 1.044,-0.846 0.328,-0.24 0.643,-0.43 0.948,-0.574 0.797,-0.401 1.448,-0.466 1.953,-0.194 0.15,0.078 0.253,0.259 0.311,0.544 0.059,0.297 0.045,0.618 -0.039,0.962 -0.084,0.344 -0.185,0.702 -0.301,1.078 -0.014,0.027 -0.024,0.059 -0.035,0.099 -0.009,0.038 -0.021,0.084 -0.034,0.135 0.149,-0.065 0.368,-0.194 0.656,-0.388 0.289,-0.194 0.692,-0.479 1.211,-0.856 0.071,-0.051 0.143,-0.042 0.218,0.03 0.075,0.072 0.124,0.186 0.151,0.34 0.033,0.143 0.033,0.289 0,0.439 -0.033,0.148 -0.091,0.255 -0.175,0.321 -0.298,0.207 -0.57,0.394 -0.816,0.563 -0.247,0.169 -0.467,0.31 -0.661,0.428 -0.266,0.156 -0.465,0.262 -0.598,0.321 -0.133,0.059 -0.234,0.086 -0.306,0.086 z"
         id="path127"
         inkscape:connector-curvature="0"
         style="fill:#f8f8f1" />
      <path
         d="m 336.732,237.828 c -0.045,0 -0.088,-0.013 -0.127,-0.038 -0.123,-0.053 -0.21,-0.2 -0.263,-0.447 -0.038,-0.219 -0.028,-0.466 0.03,-0.738 0.058,-0.272 0.142,-0.578 0.253,-0.913 0.039,-0.118 0.076,-0.236 0.112,-0.361 0.035,-0.122 0.066,-0.236 0.092,-0.34 0.02,-0.053 0.036,-0.118 0.049,-0.194 -0.194,-0.065 -0.42,-0.082 -0.675,-0.049 -0.256,0.032 -0.543,0.133 -0.861,0.299 -0.285,0.143 -0.586,0.329 -0.904,0.555 -0.317,0.228 -0.655,0.496 -1.01,0.808 -0.072,0.063 -0.142,0.067 -0.214,0.008 -0.072,-0.057 -0.123,-0.158 -0.156,-0.302 -0.038,-0.141 -0.041,-0.291 -0.009,-0.447 0.033,-0.154 0.084,-0.266 0.156,-0.329 0.369,-0.325 0.717,-0.605 1.044,-0.846 0.328,-0.24 0.643,-0.43 0.948,-0.574 0.797,-0.401 1.448,-0.466 1.953,-0.194 0.15,0.078 0.253,0.259 0.311,0.544 0.059,0.297 0.045,0.618 -0.039,0.962 -0.084,0.344 -0.185,0.702 -0.301,1.078 -0.014,0.027 -0.024,0.059 -0.035,0.099 -0.009,0.038 -0.021,0.084 -0.034,0.135 0.149,-0.065 0.368,-0.194 0.656,-0.388 0.289,-0.194 0.692,-0.479 1.211,-0.856 0.071,-0.051 0.143,-0.042 0.218,0.03 0.075,0.072 0.124,0.186 0.151,0.34 0.033,0.143 0.033,0.289 0,0.439 -0.033,0.148 -0.091,0.255 -0.175,0.321 -0.298,0.207 -0.57,0.394 -0.816,0.563 -0.247,0.169 -0.467,0.31 -0.661,0.428 -0.266,0.156 -0.465,0.262 -0.598,0.321 -0.133,0.059 -0.235,0.086 -0.306,0.086 z"
         id="path129"
         inkscape:connector-curvature="0"
         style="fill:#f8f8f1" />
      <path
         d="m 339.823,239.132 c -0.053,0 -0.099,-0.006 -0.141,-0.019 -0.042,-0.015 -0.086,-0.034 -0.132,-0.059 -0.116,-0.065 -0.197,-0.2 -0.243,-0.409 -0.058,-0.257 -0.057,-0.572 0.005,-0.943 0.061,-0.369 0.163,-0.844 0.306,-1.428 0.025,-0.103 0.052,-0.219 0.078,-0.35 0.025,-0.129 0.055,-0.253 0.088,-0.369 -0.084,0.065 -0.174,0.173 -0.268,0.321 -0.094,0.15 -0.189,0.302 -0.287,0.458 -0.064,0.103 -0.137,0.141 -0.218,0.116 -0.081,-0.025 -0.148,-0.097 -0.199,-0.213 -0.052,-0.131 -0.071,-0.272 -0.058,-0.428 0.013,-0.156 0.049,-0.291 0.107,-0.409 0.091,-0.129 0.185,-0.272 0.282,-0.426 0.098,-0.156 0.201,-0.285 0.311,-0.39 0.266,-0.272 0.509,-0.342 0.73,-0.213 0.103,0.038 0.18,0.169 0.233,0.388 0.052,0.221 0.05,0.481 -0.005,0.778 -0.055,0.297 -0.148,0.719 -0.277,1.263 -0.032,0.156 -0.066,0.31 -0.101,0.466 -0.036,0.156 -0.07,0.304 -0.102,0.447 -0.013,0.053 -0.023,0.097 -0.03,0.137 -0.006,0.038 -0.013,0.076 -0.019,0.116 0.064,-0.013 0.148,-0.053 0.248,-0.116 0.1,-0.065 0.217,-0.167 0.35,-0.302 0.132,-0.137 0.286,-0.321 0.461,-0.555 0.175,-0.234 0.376,-0.525 0.603,-0.875 0.175,-0.285 0.34,-0.563 0.496,-0.835 0.155,-0.272 0.291,-0.519 0.408,-0.738 0.116,-0.221 0.246,-0.472 0.388,-0.759 0.078,-0.181 0.172,-0.238 0.283,-0.175 0.052,0.027 0.094,0.072 0.127,0.137 0.032,0.065 0.058,0.129 0.077,0.194 0.045,0.181 0.049,0.396 0.011,0.641 -0.039,0.247 -0.111,0.628 -0.214,1.147 -0.039,0.169 -0.077,0.337 -0.112,0.506 -0.036,0.169 -0.07,0.323 -0.102,0.466 -0.006,0.065 -0.016,0.135 -0.03,0.213 0.091,-0.025 0.188,-0.097 0.292,-0.213 0.103,-0.116 0.207,-0.247 0.311,-0.39 0.103,-0.141 0.2,-0.293 0.291,-0.456 0.091,-0.162 0.172,-0.302 0.244,-0.418 0.064,-0.118 0.136,-0.169 0.213,-0.156 0.078,0.013 0.147,0.078 0.205,0.194 0.052,0.131 0.076,0.272 0.073,0.428 -0.003,0.156 -0.037,0.291 -0.102,0.407 -0.149,0.274 -0.301,0.529 -0.457,0.77 -0.155,0.238 -0.312,0.445 -0.471,0.62 -0.158,0.175 -0.32,0.299 -0.481,0.371 -0.162,0.07 -0.321,0.067 -0.477,-0.011 -0.103,-0.078 -0.178,-0.207 -0.224,-0.388 -0.038,-0.181 -0.05,-0.38 -0.034,-0.593 0.016,-0.215 0.054,-0.489 0.112,-0.827 -0.072,0.129 -0.144,0.253 -0.218,0.369 -0.075,0.116 -0.154,0.247 -0.238,0.388 -0.899,1.415 -1.595,2.122 -2.093,2.122 z"
         id="path131"
         inkscape:connector-curvature="0"
         style="fill:#f8f8f1" />
      <path
         d="m 347.626,237.828 c -0.045,0 -0.088,-0.013 -0.127,-0.038 -0.123,-0.053 -0.21,-0.2 -0.263,-0.447 -0.038,-0.219 -0.028,-0.466 0.03,-0.738 0.058,-0.272 0.142,-0.578 0.253,-0.913 0.039,-0.118 0.076,-0.236 0.112,-0.361 0.035,-0.122 0.066,-0.236 0.092,-0.34 0.02,-0.053 0.036,-0.118 0.048,-0.194 -0.194,-0.065 -0.42,-0.082 -0.675,-0.049 -0.256,0.032 -0.543,0.133 -0.86,0.299 -0.285,0.143 -0.586,0.329 -0.904,0.555 -0.317,0.228 -0.655,0.496 -1.01,0.808 -0.072,0.063 -0.142,0.067 -0.214,0.008 -0.072,-0.057 -0.123,-0.158 -0.156,-0.302 -0.038,-0.141 -0.041,-0.291 -0.009,-0.447 0.033,-0.154 0.084,-0.266 0.156,-0.329 0.369,-0.325 0.717,-0.605 1.044,-0.846 0.328,-0.24 0.643,-0.43 0.948,-0.574 0.797,-0.401 1.448,-0.466 1.953,-0.194 0.15,0.078 0.253,0.259 0.311,0.544 0.059,0.297 0.045,0.618 -0.039,0.962 -0.084,0.344 -0.185,0.702 -0.301,1.078 -0.014,0.027 -0.024,0.059 -0.035,0.099 -0.009,0.038 -0.021,0.084 -0.034,0.135 0.149,-0.065 0.368,-0.194 0.656,-0.388 0.289,-0.194 0.692,-0.479 1.211,-0.856 0.071,-0.051 0.143,-0.042 0.218,0.03 0.075,0.072 0.124,0.186 0.151,0.34 0.033,0.143 0.033,0.289 0,0.439 -0.033,0.148 -0.091,0.255 -0.175,0.321 -0.298,0.207 -0.57,0.394 -0.816,0.563 -0.247,0.169 -0.467,0.31 -0.661,0.428 -0.266,0.156 -0.465,0.262 -0.598,0.321 -0.133,0.059 -0.234,0.086 -0.306,0.086 z"
         id="path133"
         inkscape:connector-curvature="0"
         style="fill:#f8f8f1" />
      <path
         d="m 353.35,237.828 c -0.045,0 -0.088,-0.013 -0.127,-0.038 -0.123,-0.053 -0.21,-0.2 -0.263,-0.447 -0.038,-0.219 -0.028,-0.466 0.03,-0.738 0.058,-0.272 0.142,-0.578 0.253,-0.913 0.039,-0.118 0.076,-0.236 0.112,-0.361 0.035,-0.122 0.066,-0.236 0.092,-0.34 0.02,-0.053 0.036,-0.118 0.049,-0.194 -0.194,-0.065 -0.42,-0.082 -0.675,-0.049 -0.256,0.032 -0.543,0.133 -0.861,0.299 -0.285,0.143 -0.586,0.329 -0.904,0.555 -0.317,0.228 -0.655,0.496 -1.01,0.808 -0.072,0.063 -0.142,0.067 -0.214,0.008 -0.072,-0.057 -0.123,-0.158 -0.156,-0.302 -0.038,-0.141 -0.041,-0.291 -0.009,-0.447 0.033,-0.154 0.084,-0.266 0.156,-0.329 0.369,-0.325 0.717,-0.605 1.044,-0.846 0.328,-0.24 0.643,-0.43 0.948,-0.574 0.797,-0.401 1.448,-0.466 1.953,-0.194 0.15,0.078 0.253,0.259 0.311,0.544 0.059,0.297 0.045,0.618 -0.039,0.962 -0.084,0.344 -0.185,0.702 -0.301,1.078 -0.014,0.027 -0.024,0.059 -0.035,0.099 -0.009,0.038 -0.021,0.084 -0.034,0.135 0.149,-0.065 0.368,-0.194 0.656,-0.388 0.289,-0.194 0.692,-0.479 1.211,-0.856 0.071,-0.051 0.143,-0.042 0.218,0.03 0.075,0.072 0.124,0.186 0.151,0.34 0.033,0.143 0.033,0.289 0,0.439 -0.033,0.148 -0.091,0.255 -0.175,0.321 -0.298,0.207 -0.571,0.394 -0.816,0.563 -0.247,0.169 -0.467,0.31 -0.661,0.428 -0.266,0.156 -0.465,0.262 -0.598,0.321 -0.133,0.059 -0.234,0.086 -0.306,0.086 z"
         id="path135"
         inkscape:connector-curvature="0"
         style="fill:#f8f8f1" />
    </g>
    <g
       transform="matrix(1.2963308,0,0,2.2993977,-55.311661,189.13486)"
       id="g137">
      <path
         d="m 390.334,238.436 c -0.058,0 -0.113,-0.012 -0.163,-0.037 -0.159,-0.052 -0.271,-0.196 -0.338,-0.438 -0.049,-0.215 -0.037,-0.456 0.038,-0.723 0.075,-0.266 0.184,-0.566 0.326,-0.894 0.05,-0.116 0.098,-0.231 0.144,-0.353 0.045,-0.12 0.086,-0.231 0.118,-0.333 0.026,-0.052 0.046,-0.116 0.063,-0.19 -0.25,-0.064 -0.541,-0.081 -0.87,-0.048 -0.33,0.031 -0.7,0.13 -1.109,0.293 -0.367,0.14 -0.756,0.322 -1.165,0.543 -0.409,0.223 -0.844,0.485 -1.302,0.791 -0.092,0.062 -0.184,0.066 -0.276,0.008 -0.092,-0.056 -0.159,-0.155 -0.201,-0.295 -0.049,-0.138 -0.053,-0.285 -0.012,-0.438 0.042,-0.151 0.109,-0.26 0.201,-0.322 0.476,-0.318 0.924,-0.593 1.346,-0.828 0.423,-0.235 0.829,-0.421 1.222,-0.562 1.028,-0.392 1.866,-0.456 2.518,-0.19 0.193,0.076 0.326,0.254 0.401,0.533 0.076,0.291 0.058,0.605 -0.05,0.942 -0.109,0.337 -0.238,0.688 -0.387,1.055 -0.018,0.027 -0.031,0.058 -0.045,0.097 -0.012,0.037 -0.027,0.083 -0.043,0.132 0.192,-0.064 0.474,-0.19 0.846,-0.38 0.372,-0.19 0.892,-0.469 1.561,-0.838 0.091,-0.05 0.185,-0.041 0.281,0.029 0.096,0.07 0.16,0.182 0.194,0.333 0.042,0.14 0.042,0.283 0,0.43 -0.042,0.145 -0.117,0.25 -0.226,0.314 -0.385,0.202 -0.735,0.386 -1.052,0.551 -0.318,0.165 -0.602,0.304 -0.852,0.419 -0.343,0.153 -0.599,0.256 -0.771,0.314 -0.174,0.058 -0.305,0.085 -0.397,0.085 z"
         id="path139"
         inkscape:connector-curvature="0"
         style="fill:#f8f8f1" />
    </g>
    <path
       d="m 144.21699,718.51378 c 0,1.4371 -0.65594,2.60063 -1.46615,2.60063 l -4.5229,0 c -0.81021,0 -1.46615,-1.16353 -1.46615,-2.60063 l 0,-30.94299 c 0,-1.43715 0.65594,-2.60064 1.46615,-2.60064 l 4.5229,0 c 0.81021,0 1.46615,1.16349 1.46615,2.60064 l 0,30.94299 z"
       id="path141"
       inkscape:connector-curvature="0"
       style="fill:#2f2f34" />
    <path
       d="m 144.00958,868.39082 c 0,1.43711 -0.65594,2.60062 -1.46615,2.60062 l -4.5229,0 c -0.81021,0 -1.46615,-1.16351 -1.46615,-2.60062 l 0,-30.94299 c 0,-1.43715 0.65594,-2.60064 1.46615,-2.60064 l 4.5229,0 c 0.81021,0 1.46615,1.16349 1.46615,2.60064 l 0,30.94299 z"
       id="path143"
       inkscape:connector-curvature="0"
       style="fill:#2f2f34" />
    <path
       d="m 191.45917,771.36773 c 0.81021,0 1.46616,1.16349 1.46616,2.60061 l 0,8.02261 c 0,1.43711 -0.65595,2.60062 -1.46616,2.60062 l -17.44472,0 c -0.8102,0 -1.46615,-1.16351 -1.46615,-2.60062 l 0,-8.02261 c 0,-1.43712 0.65595,-2.60061 1.46615,-2.60061 l 17.44472,0 z"
       id="path145"
       inkscape:connector-curvature="0"
       style="fill:#2f2f34" />
    <path
       d="m 106.96303,771.36773 c 0.81021,0 1.46615,1.16349 1.46615,2.60061 l 0,8.02261 c 0,1.43711 -0.65594,2.60062 -1.46615,2.60062 l -17.444717,0 c -0.810209,0 -1.466151,-1.16351 -1.466151,-2.60062 l 0,-8.02261 c 0,-1.43712 0.655942,-2.60061 1.466151,-2.60061 l 17.444717,0 z"
       id="path147"
       inkscape:connector-curvature="0"
       style="fill:#2f2f34" />
    <path
       d="m 116.87996,727.29058 c 1.36504,1.1911 1.60097,3.72501 0.52632,5.63121 l -2.53951,4.50453 c -1.07596,1.9085 -2.50452,1.48772 -3.17472,-0.93356 l -3.79825,-13.70211 c -0.67149,-2.42128 -0.10368,-3.42839 1.26133,-2.23732 l 7.72483,6.73725 z"
       id="path149"
       inkscape:connector-curvature="0"
       style="fill:#2f2f34" />
    <path
       d="m 111.69076,820.25293 c 0.67149,-2.42128 2.10005,-2.83975 3.17471,-0.93357 l 2.53951,4.50453 c 1.07595,1.9062 0.83873,4.44244 -0.52631,5.63122 l -7.72484,6.73724 c -1.36504,1.19109 -1.93283,0.18395 -1.26132,-2.23731 l 3.79825,-13.70211 z"
       id="path151"
       inkscape:connector-curvature="0"
       style="fill:#2f2f34" />
    <path
       d="m 164.10011,829.45511 c -1.36504,-1.1911 -1.60096,-3.72502 -0.5263,-5.63122 l 2.5395,-4.50453 c 1.07596,-1.90849 2.50452,-1.48771 3.17471,0.93357 l 3.79826,13.70211 c 0.6715,2.42126 0.10368,3.4284 -1.26133,2.23731 l -7.72484,-6.73724 z"
       id="path153"
       inkscape:connector-curvature="0"
       style="fill:#2f2f34" />
    <path
       d="m 169.28802,736.49276 c -0.67149,2.42128 -2.10005,2.83975 -3.17471,0.93356 l -2.5395,-4.50453 c -1.07596,-1.9085 -0.83874,-4.44243 0.5263,-5.63121 l 7.72484,-6.73725 c 1.36504,-1.19107 1.93283,-0.18396 1.26133,2.23732 l -3.79826,13.70211 z"
       id="path155"
       inkscape:connector-curvature="0"
       style="fill:#2f2f34" />
    <path
       d="m 142.6627,652.62454 c 0.29036,1.51299 -0.20872,2.75007 -1.10967,2.75007 l -2.12728,0 c -0.90095,0 -1.40004,-1.23708 -1.10966,-2.75007 l 1.64504,-8.55836 c 0.29038,-1.51302 0.76614,-1.51302 1.05652,0 l 1.64505,8.55836 z"
       id="path157"
       inkscape:connector-curvature="0"
       style="fill:#ede9e6" />
    <path
       d="m 69.817973,774.1247 c 0.852984,-0.51506 1.55041,0.3702 1.55041,1.96829 l 0,3.77331 c 0,1.59808 -0.697426,2.48336 -1.55041,1.96828 l -4.824945,-2.91793 c -0.852984,-0.51505 -0.852984,-1.35894 0,-1.87401 l 4.824945,-2.91794 z"
       id="path159"
       inkscape:connector-curvature="0"
       style="fill:#ede9e6" />
    <path
       d="m 138.31609,903.33477 c -0.29038,-1.51301 0.20871,-2.75009 1.10966,-2.75009 l 2.12728,0 c 0.90095,0 1.40003,1.23708 1.10967,2.75009 l -1.64505,8.55834 c -0.29038,1.51302 -0.76614,1.51302 -1.05652,0 l -1.64504,-8.55834 z"
       id="path161"
       inkscape:connector-curvature="0"
       style="fill:#ede9e6" />
    <path
       d="m 211.16082,781.83458 c -0.853,0.51508 -1.55042,-0.3702 -1.55042,-1.96828 l 0,-3.77331 c 0,-1.59809 0.69742,-2.48335 1.55042,-1.96829 l 4.82493,2.91794 c 0.85299,0.51507 0.85299,1.35896 0,1.87401 l -4.82493,2.91793 z"
       id="path163"
       inkscape:connector-curvature="0"
       style="fill:#ede9e6" />
    <ellipse
       cx="140.48874"
       cy="777.9809"
       id="circle165"
       style="opacity:0.5;fill:#2f2f34"
       rx="25.163078"
       ry="44.633606" />
    <text
       xml:space="preserve"
       style="font-style:normal;font-variant:normal;font-weight:bold;font-stretch:normal;font-size:84.36339569px;line-height:125%;font-family:Cantarell;-inkscape-font-specification:'Cantarell Bold';letter-spacing:0px;word-spacing:0px;fill:#b3b3b3;fill-opacity:1;stroke:none;stroke-width:1px;stroke-linecap:butt;stroke-linejoin:miter;stroke-opacity:1"
       x="298.89737"
       y="573.79584"
       id="text3596"
       sodipodi:linespacing="125%"
       transform="scale(0.85264533,1.1728206)"><tspan
         sodipodi:role="line"
         id="tspan3598"
         x="298.89737"
         y="573.79584">Osmose</tspan></text>
  </g>
</svg>
