<?xml version="1.0" encoding="UTF-8" standalone="no"?>
<!-- Created with Inkscape (http://www.inkscape.org/) -->

<svg
   xmlns:dc="http://purl.org/dc/elements/1.1/"
   xmlns:cc="http://creativecommons.org/ns#"
   xmlns:rdf="http://www.w3.org/1999/02/22-rdf-syntax-ns#"
   xmlns:svg="http://www.w3.org/2000/svg"
   xmlns="http://www.w3.org/2000/svg"
   xmlns:sodipodi="http://sodipodi.sourceforge.net/DTD/sodipodi-0.dtd"
   xmlns:inkscape="http://www.inkscape.org/namespaces/inkscape"
   width="430"
   height="430"
   viewBox="0 0 430.00001 430.00001"
   id="svg3420"
   version="1.1"
   inkscape:version="0.92.1 r15371"
   inkscape:export-filename="/home/froes/Modelos/github/osmose-emulator/osmose-emulator.png"
   inkscape:export-xdpi="57.153488"
   inkscape:export-ydpi="57.153488"
   sodipodi:docname="osmose-emulator.svg">
  <title
     id="title3428">Osmose Emulator</title>
  <defs
     id="defs3422" />
  <sodipodi:namedview
     id="base"
     pagecolor="#ffffff"
     bordercolor="#666666"
     borderopacity="1.0"
     inkscape:pageopacity="0.0"
     inkscape:pageshadow="2"
     inkscape:zoom="1.1651163"
     inkscape:cx="215"
     inkscape:cy="215"
     inkscape:document-units="px"
     inkscape:current-layer="layer1"
     showgrid="false"
     units="px"
     inkscape:window-width="1280"
     inkscape:window-height="736"
     inkscape:window-x="0"
     inkscape:window-y="27"
     inkscape:window-maximized="1"
     objecttolerance="10000"
     guidetolerance="10000">
    <inkscape:grid
       type="xygrid"
       id="grid3414" />
  </sodipodi:namedview>
  <metadata
     id="metadata3425">
    <rdf:RDF>
      <cc:Work
         rdf:about="">
        <dc:format>image/svg+xml</dc:format>
        <dc:type
           rdf:resource="http://purl.org/dc/dcmitype/StillImage" />
        <dc:title>Osmose Emulator</dc:title>
        <dc:date>12-03-2017</dc:date>
        <dc:creator>
          <cc:Agent>
            <dc:title>Carlos Donizete Froes [a.k.a coringao]</dc:title>
          </cc:Agent>
        </dc:creator>
        <cc:license
           rdf:resource="http://artlibre.org/licence/lal" />
        <dc:description>Sega Master System and Game Gear console emulator</dc:description>
        <dc:publisher>
          <cc:Agent>
            <dc:title>Carlos Donizete Froes [a.k.a coringao]</dc:title>
          </cc:Agent>
        </dc:publisher>
      </cc:Work>
      <cc:License
         rdf:about="http://artlibre.org/licence/lal">
        <cc:permits
           rdf:resource="http://creativecommons.org/ns#Reproduction" />
        <cc:permits
           rdf:resource="http://creativecommons.org/ns#Distribution" />
        <cc:permits
           rdf:resource="http://creativecommons.org/ns#DerivativeWorks" />
        <cc:requires
           rdf:resource="http://creativecommons.org/ns#ShareAlike" />
        <cc:requires
           rdf:resource="http://creativecommons.org/ns#Notice" />
        <cc:requires
           rdf:resource="http://creativecommons.org/ns#Attribution" />
      </cc:License>
    </rdf:RDF>
  </metadata>
  <g
     inkscape:label="Camada 1"
     inkscape:groupmode="layer"
     id="layer1"
     transform="translate(0,-622.36216)">
    <path
       d="m 415.00003,675.26629 v 320.56963 c 0,8.01848 -2.91507,14.52628 -6.51123,14.52628 H 21.510236 C 17.915038,1010.3622 15,1003.8544 15,995.83592 V 675.26629 c 0,-8.0187 2.915038,-14.52646 6.510236,-14.52646 H 408.48977 c 3.59519,0 6.51026,6.5098 6.51026,14.52646 z"
       id="path13"
       inkscape:connector-curvature="0"
       style="fill:#39393a;stroke-width:1.09700561" />
    <polygon
       transform="matrix(0.99727757,0,0,2.0871231,-40.303034,301.05971)"
       points="227.325,179.795 227.325,222.557 456.546,222.557 456.546,313.789 227.325,313.789 227.325,332.372 74.761,332.372 74.761,179.795 "
       id="polygon15"
       style="fill:#1e1e1e" />
    <path
       d="M 47.456391,709.57838 107.38575,835.55092 47.456391,961.4941 c -0.499627,-2.0033 -0.777867,-4.29927 -0.777867,-6.71198 V 716.28643 c 0,-2.40837 0.277247,-4.70226 0.777867,-6.70805 z"
       id="path17"
       inkscape:connector-curvature="0"
       style="fill:#9598a1;stroke-width:1.09700561" />
    <polygon
       transform="matrix(0.99727757,0,0,2.0871231,-40.303034,301.05971)"
       points="148.092,256.09 151.043,253.126 153.994,256.09 151.043,259.042 "
       id="polygon19"
       style="fill:#9598a1" />
    <path
       d="m 170.25808,967.65548 c -0.95727,1.04547 -2.05435,1.65485 -3.22012,1.65485 H 53.619583 c -1.165828,0 -2.262835,-0.60938 -3.220214,-1.65485 L 110.32858,841.70999 Z"
       id="path21"
       inkscape:connector-curvature="0"
       style="fill:#9598a1;stroke-width:1.09700561" />
    <path
       d="M 170.25808,703.41928 110.32858,829.36271 50.399369,703.41928 c 0.957379,-1.04552 2.054386,-1.65504 3.220214,-1.65504 H 167.03697 c 1.16577,0 2.26271,0.60952 3.22111,1.65504 z"
       id="path23"
       inkscape:connector-curvature="0"
       style="fill:#9598a1;stroke-width:1.09700561" />
    <path
       d="m 173.978,716.29053 v 238.49556 c 0,2.41087 -0.27708,4.70665 -0.77788,6.71249 L 113.27061,835.55506 173.20012,709.5825 c 0.5008,2.00167 0.77788,4.29556 0.77788,6.70803 z"
       id="path25"
       inkscape:connector-curvature="0"
       style="fill:#9598a1;stroke-width:1.09700561" />
    <g
       transform="matrix(0.99727757,0,0,2.0871231,-40.303034,301.05971)"
       id="g27">
      <path
         d="m 215.256,183.831 h -15.382 c 0.014,0.028 0.014,0.042 0.028,0.07 0.07,0.209 0.111,0.432 0.111,0.626 0,0.251 -0.042,0.487 -0.153,0.696 h 15.396 c 3.452,0 6.264,2.798 6.264,6.264 v 129.206 c 0,3.452 -2.812,6.264 -6.264,6.264 H 86.829 c -3.452,0 -6.264,-2.812 -6.264,-6.264 V 191.487 c 0,-3.466 2.812,-6.264 6.264,-6.264 h 18.068 c -0.097,-0.223 -0.139,-0.459 -0.139,-0.696 0,-0.237 0.042,-0.473 0.153,-0.696 H 86.829 c -4.218,0 -7.656,3.424 -7.656,7.656 v 129.206 c 0,4.218 3.438,7.656 7.656,7.656 h 128.427 c 4.218,0 7.656,-3.438 7.656,-7.656 V 191.487 c 0,-4.231 -3.438,-7.656 -7.656,-7.656 z m -82.504,0.446 c -0.251,0.153 -0.501,0.306 -0.766,0.432 -0.306,0.195 -0.599,0.362 -0.877,0.515 h 1.824 c 0.028,-0.125 0.07,-0.251 0.111,-0.39 0.07,-0.195 0.167,-0.418 0.306,-0.682 0.014,-0.042 0.042,-0.084 0.07,-0.139 0.028,-0.056 0.056,-0.111 0.097,-0.167 -0.264,0.139 -0.515,0.278 -0.765,0.431 z m 9.98,0 c -0.251,0.153 -0.501,0.306 -0.766,0.432 -0.306,0.195 -0.599,0.362 -0.877,0.515 h 1.837 c 0.014,-0.125 0.056,-0.251 0.097,-0.39 0.056,-0.195 0.167,-0.418 0.292,-0.682 0.028,-0.042 0.056,-0.084 0.084,-0.139 0.028,-0.056 0.056,-0.111 0.097,-0.167 -0.262,0.139 -0.513,0.278 -0.764,0.431 z m 31.376,0 c -0.237,0.153 -0.501,0.306 -0.752,0.432 -0.306,0.195 -0.599,0.362 -0.877,0.515 h 1.81 c 0.028,-0.125 0.07,-0.251 0.111,-0.39 0.07,-0.195 0.167,-0.418 0.306,-0.682 0.028,-0.042 0.042,-0.084 0.07,-0.139 0.028,-0.056 0.07,-0.111 0.097,-0.167 -0.264,0.139 -0.514,0.278 -0.765,0.431 z"
         id="path29"
         inkscape:connector-curvature="0"
         style="fill:#795559" />
    </g>
    <path
       d="m 162.3387,893.69198 c 0,28.00087 -10.84644,50.70026 -24.22576,50.70026 H 82.543623 c -13.37949,0 -24.225878,-22.69939 -24.225878,-50.70026 v -116.2966 c 0,-28.00094 10.846388,-50.70061 24.225878,-50.70061 h 55.569317 c 13.37932,0 24.22576,22.69967 24.22576,50.70061 z"
       id="path31"
       inkscape:connector-curvature="0"
       style="fill:#1f1f1f;stroke-width:1.09700561" />
    <path
       d="m 156.84863,887.55375 c 0,25.04516 -9.70143,45.34915 -21.66891,45.34915 H 85.476608 c -11.967326,0 -21.668833,-20.30399 -21.668833,-45.34915 V 783.53343 c 0,-25.04535 9.701507,-45.34906 21.668833,-45.34906 h 49.703112 c 11.96748,0 21.66891,20.30371 21.66891,45.34906 z"
       id="path33"
       inkscape:connector-curvature="0"
       style="fill:#3b3b42;stroke-width:1.09700561" />
    <rect
       height="349.6203"
       width="5.1339903"
       x="29.120459"
       y="660.7337"
       id="rect35"
       style="opacity:0.1;fill:#bfcad9;stroke-width:1.09700561" />
    <polygon
       transform="matrix(0.99727757,0,0,2.0871231,-40.303034,301.05971)"
       points="227.088,222.557 227.088,172.152 232.225,172.152 232.225,217.407 456.546,217.407 456.546,222.557 "
       id="polygon37"
       style="opacity:0.5;fill:#4a4a56" />
    <polygon
       transform="matrix(0.99727757,0,0,2.0871231,-40.303034,301.05971)"
       points="232.225,319.009 232.225,339.667 227.088,339.667 227.088,313.859 456.546,313.859 456.546,319.009 "
       id="polygon39"
       style="opacity:0.5;fill:#161618" />
    <g
       transform="matrix(0.99727757,0,0,2.0871231,-40.303034,301.05971)"
       id="g41">
      <polygon
         points="231.397,308.551 231.729,244.518 232.06,308.551 "
         id="polygon43"
         style="fill:#bbbbbb" />
      <polygon
         points="294.285,308.551 294.616,244.518 294.947,308.551 "
         id="polygon45"
         style="fill:#bbbbbb" />
      <polygon
         points="290.093,308.551 290.424,244.518 290.755,308.551 "
         id="polygon47"
         style="fill:#bbbbbb" />
      <polygon
         points="281.708,308.551 282.039,244.518 282.37,308.551 "
         id="polygon49"
         style="fill:#bbbbbb" />
      <polygon
         points="264.938,308.551 265.269,244.518 265.6,308.551 "
         id="polygon51"
         style="fill:#bbbbbb" />
      <polygon
         points="248.168,308.551 248.499,244.518 248.83,308.551 "
         id="polygon53"
         style="fill:#bbbbbb" />
      <polygon
         points="235.59,308.551 235.921,244.518 236.252,308.551 "
         id="polygon55"
         style="fill:#bbbbbb" />
      <polygon
         points="239.783,308.551 240.114,244.518 240.445,308.551 "
         id="polygon57"
         style="fill:#bbbbbb" />
      <polygon
         points="243.975,308.551 244.306,244.518 244.637,308.551 "
         id="polygon59"
         style="fill:#bbbbbb" />
      <polygon
         points="252.36,308.551 252.691,244.518 253.022,308.551 "
         id="polygon61"
         style="fill:#bbbbbb" />
      <polygon
         points="256.553,308.551 256.884,244.518 257.215,308.551 "
         id="polygon63"
         style="fill:#bbbbbb" />
      <polygon
         points="260.745,308.551 261.076,244.518 261.407,308.551 "
         id="polygon65"
         style="fill:#bbbbbb" />
      <polygon
         points="269.13,308.551 269.461,244.518 269.792,308.551 "
         id="polygon67"
         style="fill:#bbbbbb" />
      <polygon
         points="273.323,308.551 273.654,244.518 273.985,308.551 "
         id="polygon69"
         style="fill:#bbbbbb" />
      <polygon
         points="277.515,308.551 277.846,244.518 278.177,308.551 "
         id="polygon71"
         style="fill:#bbbbbb" />
      <polygon
         points="285.9,308.551 286.231,244.518 286.562,308.551 "
         id="polygon73"
         style="fill:#bbbbbb" />
    </g>
    <rect
       height="133.64279"
       width="63.857578"
       x="257.79239"
       y="811.3974"
       id="rect75"
       style="fill:#9598a1;stroke-width:1.09700561" />
    <rect
       height="133.64279"
       width="63.857578"
       x="329.16373"
       y="811.3974"
       id="rect77"
       style="fill:#9598a1;stroke-width:1.09700561" />
    <ellipse
       cx="289.72131"
       cy="878.2204"
       id="circle79"
       style="fill:#212221;stroke-width:1.09700561"
       rx="26.12867"
       ry="54.682652" />
    <path
       d="m 289.72101,924.1868 c -12.10993,0 -21.96297,-20.62059 -21.96297,-45.96455 0,-25.34398 9.85304,-45.96483 21.96297,-45.96483 12.11198,0 21.96506,20.62085 21.96506,45.96483 -9.8e-4,25.34396 -9.85407,45.96455 -21.96506,45.96455 z"
       id="path81"
       inkscape:connector-curvature="0"
       style="fill:#3b3b42;stroke-width:1.09700561" />
    <ellipse
       cx="361.09244"
       cy="878.2204"
       id="circle83"
       style="fill:#212221;stroke-width:1.09700561"
       rx="26.12867"
       ry="54.682652" />
    <path
       d="m 361.09328,924.1868 c -12.1119,0 -21.96515,-20.62059 -21.96515,-45.96455 0,-25.34398 9.85325,-45.96483 21.96515,-45.96483 12.10987,0 21.96295,20.62085 21.96295,45.96483 0,25.34396 -9.85308,45.96455 -21.96295,45.96455 z"
       id="path85"
       inkscape:connector-curvature="0"
       style="fill:#3b3b42;stroke-width:1.09700561" />
    <path
       d="m 321.64992,801.91276 c 0,1.26273 -0.48868,2.28553 -1.09198,2.28553 h -61.67379 c -0.60331,0 -1.09198,-1.0228 -1.09198,-2.28553 v -20.9421 c 0,-1.26279 0.48867,-2.28539 1.09198,-2.28539 h 61.67379 c 0.6033,0 1.09198,1.0226 1.09198,2.28539 z"
       id="path87"
       inkscape:connector-curvature="0"
       style="fill:#795559;stroke-width:1.09700561" />
    <path
       d="m 393.02206,801.91276 c 0,1.26273 -0.48874,2.28553 -1.09203,2.28553 h -61.6746 c -0.60339,0 -1.09217,-1.0228 -1.09217,-2.28553 v -20.9421 c 0,-1.26279 0.48878,-2.28539 1.09217,-2.28539 h 61.67365 c 0.60329,0 1.09201,1.0226 1.09201,2.28539 v 20.9421 z"
       id="path89"
       inkscape:connector-curvature="0"
       style="fill:#795559;stroke-width:1.09700561" />
    <g
       transform="matrix(0.99727757,0,0,2.0871231,-40.303034,301.05971)"
       id="g91">
      <path
         d="m 112.433,188.082 c -0.112,0 -0.217,-0.003 -0.314,-0.008 -0.097,-0.005 -0.171,-0.012 -0.222,-0.023 -0.286,-0.082 -0.542,-0.212 -0.766,-0.39 -0.224,-0.178 -0.393,-0.396 -0.505,-0.651 -0.071,-0.143 -0.118,-0.273 -0.138,-0.39 -0.02,-0.117 -0.031,-0.238 -0.031,-0.36 0,-0.163 0.015,-0.321 0.046,-0.474 -0.092,-0.061 -0.189,-0.128 -0.291,-0.198 -0.102,-0.072 -0.179,-0.148 -0.23,-0.23 -0.245,-0.326 -0.368,-0.674 -0.368,-1.041 0,-0.245 0.054,-0.477 0.16,-0.697 0.107,-0.219 0.253,-0.416 0.437,-0.589 0.051,-0.052 0.145,-0.148 0.283,-0.291 0.138,-0.143 0.263,-0.285 0.375,-0.43 l 0.307,-0.337 c 0.143,-0.152 0.288,-0.309 0.436,-0.466 0.147,-0.158 0.293,-0.309 0.436,-0.451 0.163,-0.143 0.306,-0.266 0.429,-0.368 0.122,-0.102 0.23,-0.184 0.321,-0.245 0.53,-0.326 1.081,-0.428 1.654,-0.306 0.592,0.152 0.985,0.485 1.179,0.995 l -0.015,-0.015 c 0.041,0.091 0.074,0.181 0.099,0.268 0.026,0.087 0.044,0.175 0.054,0.268 0.143,-0.154 0.271,-0.299 0.383,-0.436 0.112,-0.137 0.215,-0.262 0.307,-0.375 l 0.214,-0.245 c 0.02,-0.02 0.036,-0.041 0.046,-0.061 0.01,-0.011 0.02,-0.026 0.031,-0.046 0.234,-0.276 0.513,-0.472 0.835,-0.59 0.321,-0.117 0.645,-0.135 0.972,-0.053 0.224,0.061 0.432,0.174 0.621,0.337 0.188,0.163 0.345,0.352 0.467,0.565 0.143,0.328 0.207,0.605 0.191,0.835 -0.015,0.23 -0.033,0.386 -0.053,0.468 -0.011,0.05 -0.023,0.099 -0.039,0.145 -0.015,0.046 -0.028,0.09 -0.038,0.13 l -0.092,0.291 -0.016,0.045 c 0.204,0.02 0.406,0.077 0.605,0.169 0.199,0.092 0.37,0.22 0.513,0.383 0.133,0.163 0.232,0.343 0.298,0.536 0.067,0.194 0.099,0.383 0.099,0.567 0,0.51 -0.209,0.945 -0.627,1.301 l -0.077,0.077 c -0.214,0.184 -0.442,0.367 -0.681,0.551 -0.24,0.184 -0.493,0.358 -0.758,0.521 -0.603,0.358 -1.195,0.536 -1.777,0.536 -0.245,0 -0.49,-0.035 -0.735,-0.107 -0.184,-0.039 -0.355,-0.109 -0.513,-0.207 -0.158,-0.097 -0.294,-0.216 -0.406,-0.359 -0.122,0.102 -0.24,0.196 -0.352,0.283 -0.112,0.087 -0.24,0.177 -0.383,0.268 h 0.015 c -0.234,0.163 -0.459,0.302 -0.674,0.413 -0.214,0.113 -0.419,0.209 -0.612,0.291 -0.173,0.072 -0.358,0.122 -0.551,0.154 -0.191,0.027 -0.376,0.042 -0.549,0.042 z"
         id="path93"
         inkscape:connector-curvature="0"
         style="fill:#edebeb" />
      <path
         d="m 122.953,187.087 c -0.378,0 -0.699,-0.113 -0.964,-0.337 -0.245,-0.194 -0.414,-0.439 -0.506,-0.735 -0.092,-0.296 -0.097,-0.591 -0.015,-0.888 0,-0.011 0.005,-0.026 0.015,-0.046 0.01,-0.02 0.016,-0.035 0.016,-0.046 0,-0.01 0.005,-0.024 0.015,-0.046 -0.561,0.337 -1.072,0.593 -1.531,0.767 -0.194,0.071 -0.393,0.102 -0.597,0.091 -0.204,-0.01 -0.393,-0.056 -0.567,-0.137 -0.173,-0.082 -0.332,-0.197 -0.474,-0.345 -0.143,-0.147 -0.25,-0.318 -0.321,-0.512 -0.082,-0.193 -0.115,-0.393 -0.1,-0.597 0.016,-0.204 0.064,-0.396 0.145,-0.575 0.082,-0.178 0.197,-0.338 0.345,-0.481 0.148,-0.144 0.319,-0.25 0.513,-0.322 0.174,-0.061 0.467,-0.209 0.88,-0.445 0.414,-0.234 0.977,-0.638 1.692,-1.208 0.214,-0.174 0.411,-0.337 0.589,-0.491 0.179,-0.154 0.334,-0.291 0.467,-0.413 0.153,-0.143 0.296,-0.276 0.429,-0.398 0.419,-0.398 0.909,-0.526 1.47,-0.383 0.204,0.052 0.387,0.144 0.551,0.276 0.163,0.133 0.296,0.287 0.398,0.459 0.163,0.285 0.235,0.576 0.215,0.873 -0.02,0.296 -0.077,0.639 -0.169,1.026 -0.02,0.102 -0.044,0.201 -0.069,0.299 -0.026,0.097 -0.054,0.201 -0.084,0.313 0.326,-0.02 0.627,0.052 0.903,0.215 0.275,0.163 0.485,0.398 0.627,0.704 0.082,0.194 0.123,0.391 0.123,0.59 0,0.199 -0.033,0.39 -0.1,0.574 -0.067,0.185 -0.169,0.351 -0.306,0.498 -0.138,0.148 -0.304,0.264 -0.498,0.345 -0.337,0.154 -0.646,0.299 -0.926,0.436 -0.281,0.137 -0.526,0.262 -0.735,0.375 -0.209,0.113 -0.375,0.201 -0.498,0.268 -0.122,0.067 -0.189,0.099 -0.199,0.099 -0.244,0.13 -0.49,0.197 -0.734,0.197 z"
         id="path95"
         inkscape:connector-curvature="0"
         style="fill:#edebeb" />
      <path
         d="m 128.909,187.087 c -0.378,0 -0.699,-0.113 -0.964,-0.337 -0.245,-0.194 -0.414,-0.439 -0.506,-0.735 -0.092,-0.296 -0.097,-0.591 -0.015,-0.888 0,-0.011 0.005,-0.026 0.015,-0.046 0.01,-0.02 0.016,-0.035 0.016,-0.046 0,-0.01 0.005,-0.024 0.015,-0.046 -0.561,0.337 -1.072,0.593 -1.531,0.767 -0.194,0.071 -0.393,0.102 -0.597,0.091 -0.204,-0.01 -0.393,-0.056 -0.567,-0.137 -0.173,-0.082 -0.332,-0.197 -0.474,-0.345 -0.143,-0.147 -0.25,-0.318 -0.321,-0.512 -0.082,-0.193 -0.115,-0.393 -0.1,-0.597 0.016,-0.204 0.064,-0.396 0.145,-0.575 0.082,-0.178 0.197,-0.338 0.345,-0.481 0.148,-0.144 0.319,-0.25 0.513,-0.322 0.174,-0.061 0.467,-0.209 0.88,-0.445 0.414,-0.234 0.977,-0.638 1.692,-1.208 0.214,-0.174 0.411,-0.337 0.589,-0.491 0.179,-0.154 0.334,-0.291 0.467,-0.413 0.153,-0.143 0.296,-0.276 0.429,-0.398 0.419,-0.398 0.909,-0.526 1.47,-0.383 0.204,0.052 0.387,0.144 0.551,0.276 0.163,0.133 0.296,0.287 0.398,0.459 0.163,0.285 0.235,0.576 0.215,0.873 -0.02,0.296 -0.077,0.639 -0.169,1.026 -0.02,0.102 -0.044,0.201 -0.069,0.299 -0.026,0.097 -0.054,0.201 -0.084,0.313 0.326,-0.02 0.627,0.052 0.903,0.215 0.275,0.163 0.485,0.398 0.627,0.704 0.082,0.194 0.123,0.391 0.123,0.59 0,0.199 -0.033,0.39 -0.1,0.574 -0.067,0.185 -0.169,0.351 -0.306,0.498 -0.138,0.148 -0.304,0.264 -0.498,0.345 -0.337,0.154 -0.646,0.299 -0.926,0.436 -0.281,0.137 -0.526,0.262 -0.735,0.375 -0.209,0.113 -0.375,0.201 -0.498,0.268 -0.122,0.067 -0.189,0.099 -0.199,0.099 -0.244,0.13 -0.49,0.197 -0.734,0.197 z"
         id="path97"
         inkscape:connector-curvature="0"
         style="fill:#edebeb" />
      <path
         d="m 136.718,186.933 c -0.143,0 -0.301,-0.026 -0.475,-0.076 -0.255,-0.061 -0.474,-0.177 -0.658,-0.345 -0.184,-0.169 -0.321,-0.37 -0.414,-0.605 -0.163,-0.387 -0.158,-0.826 0.016,-1.316 0.061,-0.174 0.153,-0.378 0.276,-0.613 0.02,-0.041 0.043,-0.084 0.069,-0.131 0.025,-0.046 0.054,-0.094 0.084,-0.145 -0.235,0.122 -0.465,0.253 -0.689,0.391 -0.225,0.137 -0.454,0.268 -0.689,0.39 -0.419,0.256 -0.819,0.487 -1.202,0.696 -0.383,0.209 -0.737,0.386 -1.064,0.529 -0.194,0.091 -0.39,0.137 -0.589,0.137 -0.199,0 -0.391,-0.035 -0.574,-0.107 -0.184,-0.071 -0.349,-0.175 -0.498,-0.314 -0.148,-0.137 -0.263,-0.303 -0.345,-0.498 -0.092,-0.193 -0.138,-0.39 -0.138,-0.589 0,-0.2 0.036,-0.39 0.107,-0.575 0.071,-0.184 0.176,-0.349 0.314,-0.498 0.137,-0.148 0.304,-0.262 0.498,-0.344 0.235,-0.113 0.523,-0.262 0.865,-0.451 0.342,-0.189 0.707,-0.396 1.094,-0.621 0.449,-0.265 0.922,-0.538 1.416,-0.818 0.495,-0.281 0.983,-0.523 1.463,-0.727 0.541,-0.266 1.046,-0.445 1.516,-0.537 0.326,-0.082 0.63,-0.126 0.911,-0.137 0.281,-0.01 0.554,0.02 0.82,0.092 0.561,0.163 0.944,0.51 1.148,1.041 0.154,0.387 0.176,0.765 0.069,1.132 -0.107,0.367 -0.248,0.715 -0.421,1.041 0.031,-0.01 0.064,-0.018 0.1,-0.023 0.035,-0.005 0.069,-0.018 0.099,-0.038 0.194,-0.071 0.39,-0.099 0.589,-0.084 0.199,0.015 0.388,0.064 0.567,0.145 0.178,0.082 0.336,0.197 0.474,0.345 0.138,0.147 0.243,0.318 0.314,0.512 0.071,0.204 0.102,0.405 0.092,0.605 -0.01,0.198 -0.056,0.387 -0.138,0.567 -0.082,0.178 -0.196,0.336 -0.344,0.474 -0.148,0.137 -0.324,0.242 -0.529,0.314 -0.48,0.173 -0.918,0.329 -1.317,0.466 -0.398,0.139 -0.75,0.258 -1.056,0.36 -0.429,0.122 -0.776,0.212 -1.041,0.268 -0.266,0.059 -0.506,0.087 -0.72,0.087 z"
         id="path99"
         inkscape:connector-curvature="0"
         style="fill:#edebeb" />
      <path
         d="m 145.737,186.933 c -0.143,0 -0.301,-0.026 -0.475,-0.076 -0.255,-0.061 -0.474,-0.177 -0.658,-0.345 -0.184,-0.169 -0.322,-0.37 -0.414,-0.605 -0.163,-0.387 -0.158,-0.826 0.016,-1.316 0.061,-0.174 0.153,-0.378 0.276,-0.613 0.02,-0.041 0.043,-0.084 0.069,-0.131 0.025,-0.046 0.054,-0.094 0.084,-0.145 -0.235,0.122 -0.465,0.253 -0.689,0.391 -0.225,0.137 -0.454,0.268 -0.689,0.39 -0.419,0.256 -0.819,0.487 -1.202,0.696 -0.383,0.209 -0.737,0.386 -1.064,0.529 -0.194,0.091 -0.39,0.137 -0.589,0.137 -0.199,0 -0.391,-0.035 -0.574,-0.107 -0.184,-0.071 -0.349,-0.175 -0.498,-0.314 -0.148,-0.137 -0.263,-0.303 -0.345,-0.498 -0.092,-0.193 -0.138,-0.39 -0.138,-0.589 0,-0.2 0.036,-0.39 0.107,-0.575 0.071,-0.184 0.176,-0.349 0.314,-0.498 0.137,-0.148 0.304,-0.262 0.498,-0.344 0.235,-0.113 0.523,-0.262 0.865,-0.451 0.342,-0.189 0.707,-0.396 1.094,-0.621 0.449,-0.265 0.922,-0.538 1.416,-0.818 0.495,-0.281 0.983,-0.523 1.463,-0.727 0.541,-0.266 1.046,-0.445 1.516,-0.537 0.326,-0.082 0.63,-0.126 0.911,-0.137 0.281,-0.01 0.554,0.02 0.82,0.092 0.561,0.163 0.944,0.51 1.148,1.041 0.154,0.387 0.176,0.765 0.069,1.132 -0.107,0.367 -0.248,0.715 -0.421,1.041 0.031,-0.01 0.064,-0.018 0.1,-0.023 0.035,-0.005 0.069,-0.018 0.099,-0.038 0.194,-0.071 0.39,-0.099 0.589,-0.084 0.199,0.015 0.388,0.064 0.567,0.145 0.178,0.082 0.336,0.197 0.474,0.345 0.138,0.147 0.243,0.318 0.314,0.512 0.071,0.204 0.102,0.405 0.092,0.605 -0.01,0.198 -0.056,0.387 -0.138,0.567 -0.082,0.178 -0.196,0.336 -0.344,0.474 -0.148,0.137 -0.324,0.242 -0.529,0.314 -0.48,0.173 -0.918,0.329 -1.317,0.466 -0.398,0.139 -0.75,0.258 -1.056,0.36 -0.429,0.122 -0.776,0.212 -1.041,0.268 -0.266,0.059 -0.506,0.087 -0.72,0.087 z"
         id="path101"
         inkscape:connector-curvature="0"
         style="fill:#edebeb" />
      <path
         d="m 152.903,187.087 c -0.378,0 -0.699,-0.113 -0.964,-0.337 -0.245,-0.194 -0.414,-0.439 -0.506,-0.735 -0.092,-0.296 -0.097,-0.591 -0.015,-0.888 0,-0.011 0.005,-0.026 0.015,-0.046 0.01,-0.02 0.016,-0.035 0.016,-0.046 0,-0.01 0.005,-0.024 0.015,-0.046 -0.561,0.337 -1.072,0.593 -1.531,0.767 -0.194,0.071 -0.393,0.102 -0.597,0.091 -0.204,-0.01 -0.393,-0.056 -0.567,-0.137 -0.173,-0.082 -0.332,-0.197 -0.474,-0.345 -0.143,-0.147 -0.25,-0.318 -0.321,-0.512 -0.082,-0.193 -0.115,-0.393 -0.1,-0.597 0.016,-0.204 0.064,-0.396 0.145,-0.575 0.082,-0.178 0.197,-0.338 0.345,-0.481 0.148,-0.144 0.319,-0.25 0.513,-0.322 0.174,-0.061 0.467,-0.209 0.88,-0.445 0.414,-0.234 0.977,-0.638 1.692,-1.208 0.214,-0.174 0.411,-0.337 0.589,-0.491 0.178,-0.154 0.334,-0.291 0.467,-0.413 0.153,-0.143 0.296,-0.276 0.429,-0.398 0.419,-0.398 0.909,-0.526 1.47,-0.383 0.204,0.052 0.387,0.144 0.551,0.276 0.163,0.133 0.296,0.287 0.398,0.459 0.163,0.285 0.235,0.576 0.215,0.873 -0.02,0.296 -0.077,0.639 -0.169,1.026 -0.02,0.102 -0.044,0.201 -0.069,0.299 -0.026,0.097 -0.054,0.201 -0.084,0.313 0.326,-0.02 0.627,0.052 0.903,0.215 0.275,0.163 0.485,0.398 0.627,0.704 0.082,0.194 0.123,0.391 0.123,0.59 0,0.199 -0.033,0.39 -0.1,0.574 -0.067,0.185 -0.169,0.351 -0.306,0.498 -0.138,0.148 -0.304,0.264 -0.498,0.345 -0.337,0.154 -0.646,0.299 -0.926,0.436 -0.281,0.137 -0.526,0.262 -0.735,0.375 -0.209,0.113 -0.375,0.201 -0.498,0.268 -0.122,0.067 -0.189,0.099 -0.199,0.099 -0.244,0.13 -0.49,0.197 -0.734,0.197 z"
         id="path103"
         inkscape:connector-curvature="0"
         style="fill:#edebeb" />
      <path
         d="m 158.859,187.087 c -0.378,0 -0.699,-0.113 -0.964,-0.337 -0.245,-0.194 -0.414,-0.439 -0.506,-0.735 -0.092,-0.296 -0.097,-0.591 -0.015,-0.888 0,-0.011 0.005,-0.026 0.015,-0.046 0.01,-0.02 0.016,-0.035 0.016,-0.046 0,-0.01 0.005,-0.024 0.015,-0.046 -0.561,0.337 -1.072,0.593 -1.531,0.767 -0.194,0.071 -0.393,0.102 -0.597,0.091 -0.204,-0.01 -0.393,-0.056 -0.567,-0.137 -0.173,-0.082 -0.332,-0.197 -0.474,-0.345 -0.143,-0.147 -0.25,-0.318 -0.321,-0.512 -0.082,-0.193 -0.115,-0.393 -0.1,-0.597 0.016,-0.204 0.064,-0.396 0.145,-0.575 0.082,-0.178 0.197,-0.338 0.345,-0.481 0.148,-0.144 0.319,-0.25 0.513,-0.322 0.174,-0.061 0.467,-0.209 0.88,-0.445 0.414,-0.234 0.977,-0.638 1.692,-1.208 0.214,-0.174 0.411,-0.337 0.589,-0.491 0.178,-0.154 0.334,-0.291 0.467,-0.413 0.153,-0.143 0.296,-0.276 0.429,-0.398 0.419,-0.398 0.909,-0.526 1.47,-0.383 0.204,0.052 0.387,0.144 0.551,0.276 0.163,0.133 0.296,0.287 0.398,0.459 0.163,0.285 0.235,0.576 0.215,0.873 -0.02,0.296 -0.077,0.639 -0.169,1.026 -0.02,0.102 -0.043,0.201 -0.069,0.299 -0.026,0.097 -0.054,0.201 -0.084,0.313 0.326,-0.02 0.627,0.052 0.903,0.215 0.275,0.163 0.485,0.398 0.627,0.704 0.082,0.194 0.123,0.391 0.123,0.59 0,0.199 -0.033,0.39 -0.1,0.574 -0.067,0.185 -0.169,0.351 -0.306,0.498 -0.138,0.148 -0.304,0.264 -0.498,0.345 -0.337,0.154 -0.646,0.299 -0.926,0.436 -0.281,0.137 -0.526,0.262 -0.735,0.375 -0.209,0.113 -0.375,0.201 -0.498,0.268 -0.122,0.067 -0.189,0.099 -0.199,0.099 -0.244,0.13 -0.49,0.197 -0.734,0.197 z"
         id="path105"
         inkscape:connector-curvature="0"
         style="fill:#edebeb" />
      <path
         d="m 174.109,186.933 c -0.143,0 -0.301,-0.026 -0.475,-0.076 -0.255,-0.061 -0.474,-0.177 -0.658,-0.345 -0.184,-0.169 -0.322,-0.37 -0.414,-0.605 -0.163,-0.387 -0.158,-0.826 0.016,-1.316 0.061,-0.174 0.153,-0.378 0.276,-0.613 0.02,-0.041 0.043,-0.084 0.069,-0.131 0.025,-0.046 0.054,-0.094 0.084,-0.145 -0.235,0.122 -0.465,0.253 -0.689,0.391 -0.225,0.137 -0.454,0.268 -0.689,0.39 -0.419,0.256 -0.819,0.487 -1.202,0.696 -0.383,0.209 -0.737,0.386 -1.064,0.529 -0.194,0.091 -0.39,0.137 -0.589,0.137 -0.199,0 -0.391,-0.035 -0.574,-0.107 -0.184,-0.071 -0.349,-0.175 -0.498,-0.314 -0.148,-0.137 -0.263,-0.303 -0.345,-0.498 -0.092,-0.193 -0.138,-0.39 -0.138,-0.589 0,-0.2 0.036,-0.39 0.107,-0.575 0.071,-0.184 0.176,-0.349 0.314,-0.498 0.137,-0.148 0.304,-0.262 0.498,-0.344 0.235,-0.113 0.523,-0.262 0.865,-0.451 0.342,-0.189 0.707,-0.396 1.094,-0.621 0.449,-0.265 0.922,-0.538 1.416,-0.818 0.495,-0.281 0.983,-0.523 1.463,-0.727 0.541,-0.266 1.046,-0.445 1.516,-0.537 0.326,-0.082 0.63,-0.126 0.911,-0.137 0.281,-0.01 0.554,0.02 0.82,0.092 0.561,0.163 0.944,0.51 1.148,1.041 0.154,0.387 0.176,0.765 0.069,1.132 -0.107,0.367 -0.248,0.715 -0.421,1.041 0.031,-0.01 0.064,-0.018 0.1,-0.023 0.035,-0.005 0.069,-0.018 0.099,-0.038 0.194,-0.071 0.39,-0.099 0.589,-0.084 0.199,0.015 0.388,0.064 0.567,0.145 0.178,0.082 0.336,0.197 0.474,0.345 0.138,0.147 0.243,0.318 0.314,0.512 0.071,0.204 0.102,0.405 0.092,0.605 -0.01,0.198 -0.056,0.387 -0.138,0.567 -0.082,0.178 -0.196,0.336 -0.344,0.474 -0.148,0.137 -0.324,0.242 -0.529,0.314 -0.48,0.173 -0.918,0.329 -1.317,0.466 -0.398,0.139 -0.75,0.258 -1.056,0.36 -0.429,0.122 -0.776,0.212 -1.041,0.268 -0.266,0.059 -0.506,0.087 -0.72,0.087 z"
         id="path107"
         inkscape:connector-curvature="0"
         style="fill:#edebeb" />
      <path
         d="m 178.901,188.082 c -0.112,0 -0.217,-0.003 -0.314,-0.008 -0.097,-0.005 -0.171,-0.012 -0.222,-0.023 -0.286,-0.082 -0.542,-0.212 -0.766,-0.39 -0.224,-0.178 -0.393,-0.396 -0.505,-0.651 -0.071,-0.143 -0.118,-0.273 -0.138,-0.39 -0.02,-0.117 -0.031,-0.238 -0.031,-0.36 0,-0.163 0.015,-0.321 0.046,-0.474 -0.092,-0.061 -0.189,-0.128 -0.291,-0.198 -0.102,-0.072 -0.179,-0.148 -0.23,-0.23 -0.245,-0.326 -0.368,-0.674 -0.368,-1.041 0,-0.245 0.054,-0.477 0.16,-0.697 0.107,-0.219 0.253,-0.416 0.437,-0.589 0.051,-0.052 0.145,-0.148 0.283,-0.291 0.138,-0.143 0.263,-0.285 0.375,-0.43 l 0.307,-0.337 c 0.143,-0.152 0.288,-0.309 0.436,-0.466 0.147,-0.158 0.293,-0.309 0.436,-0.451 0.163,-0.143 0.306,-0.266 0.429,-0.368 0.122,-0.102 0.23,-0.184 0.322,-0.245 0.53,-0.326 1.081,-0.428 1.654,-0.306 0.592,0.152 0.985,0.485 1.179,0.995 l -0.015,-0.015 c 0.041,0.091 0.074,0.181 0.099,0.268 0.026,0.087 0.044,0.175 0.054,0.268 0.143,-0.154 0.271,-0.299 0.383,-0.436 0.112,-0.137 0.215,-0.262 0.307,-0.375 l 0.214,-0.245 c 0.02,-0.02 0.036,-0.041 0.046,-0.061 0.01,-0.011 0.02,-0.026 0.031,-0.046 0.234,-0.276 0.513,-0.472 0.835,-0.59 0.322,-0.117 0.645,-0.135 0.972,-0.053 0.224,0.061 0.432,0.174 0.621,0.337 0.188,0.163 0.345,0.352 0.467,0.565 0.143,0.328 0.207,0.605 0.191,0.835 -0.015,0.23 -0.033,0.386 -0.053,0.468 -0.011,0.05 -0.023,0.099 -0.039,0.145 -0.015,0.046 -0.028,0.09 -0.038,0.13 l -0.092,0.291 -0.016,0.045 c 0.204,0.02 0.406,0.077 0.605,0.169 0.199,0.092 0.37,0.22 0.513,0.383 0.133,0.163 0.232,0.343 0.298,0.536 0.067,0.194 0.099,0.383 0.099,0.567 0,0.51 -0.209,0.945 -0.627,1.301 l -0.077,0.077 c -0.214,0.184 -0.442,0.367 -0.681,0.551 -0.24,0.184 -0.493,0.358 -0.758,0.521 -0.603,0.358 -1.195,0.536 -1.777,0.536 -0.245,0 -0.49,-0.035 -0.735,-0.107 -0.184,-0.039 -0.355,-0.109 -0.513,-0.207 -0.158,-0.097 -0.294,-0.216 -0.406,-0.359 -0.122,0.102 -0.24,0.196 -0.352,0.283 -0.112,0.087 -0.24,0.177 -0.383,0.268 h 0.015 c -0.234,0.163 -0.459,0.302 -0.674,0.413 -0.214,0.113 -0.419,0.209 -0.612,0.291 -0.173,0.072 -0.358,0.122 -0.551,0.154 -0.193,0.032 -0.376,0.042 -0.55,0.042 z"
         id="path109"
         inkscape:connector-curvature="0"
         style="fill:#edebeb" />
      <path
         d="m 187.048,188.082 c -0.112,0 -0.217,-0.003 -0.314,-0.008 -0.097,-0.005 -0.171,-0.012 -0.222,-0.023 -0.286,-0.082 -0.542,-0.212 -0.766,-0.39 -0.224,-0.178 -0.393,-0.396 -0.505,-0.651 -0.071,-0.143 -0.118,-0.273 -0.138,-0.39 -0.02,-0.117 -0.031,-0.238 -0.031,-0.36 0,-0.163 0.015,-0.321 0.046,-0.474 -0.092,-0.061 -0.189,-0.128 -0.291,-0.198 -0.102,-0.072 -0.179,-0.148 -0.23,-0.23 -0.245,-0.326 -0.368,-0.674 -0.368,-1.041 0,-0.245 0.054,-0.477 0.16,-0.697 0.107,-0.219 0.253,-0.416 0.437,-0.589 0.051,-0.052 0.145,-0.148 0.283,-0.291 0.138,-0.143 0.263,-0.285 0.375,-0.43 l 0.307,-0.337 c 0.143,-0.152 0.288,-0.309 0.436,-0.466 0.147,-0.158 0.293,-0.309 0.436,-0.451 0.163,-0.143 0.306,-0.266 0.429,-0.368 0.122,-0.102 0.23,-0.184 0.322,-0.245 0.53,-0.326 1.081,-0.428 1.654,-0.306 0.592,0.152 0.985,0.485 1.179,0.995 l -0.015,-0.015 c 0.041,0.091 0.074,0.181 0.099,0.268 0.026,0.087 0.044,0.175 0.054,0.268 0.143,-0.154 0.271,-0.299 0.383,-0.436 0.112,-0.137 0.215,-0.262 0.307,-0.375 l 0.214,-0.245 c 0.02,-0.02 0.036,-0.041 0.046,-0.061 0.01,-0.011 0.02,-0.026 0.031,-0.046 0.234,-0.276 0.513,-0.472 0.835,-0.59 0.321,-0.117 0.645,-0.135 0.972,-0.053 0.224,0.061 0.432,0.174 0.621,0.337 0.188,0.163 0.345,0.352 0.467,0.565 0.143,0.328 0.207,0.605 0.191,0.835 -0.015,0.23 -0.033,0.386 -0.053,0.468 -0.011,0.05 -0.023,0.099 -0.039,0.145 -0.015,0.046 -0.028,0.09 -0.038,0.13 l -0.092,0.291 -0.016,0.045 c 0.204,0.02 0.406,0.077 0.605,0.169 0.199,0.092 0.37,0.22 0.513,0.383 0.133,0.163 0.232,0.343 0.298,0.536 0.067,0.194 0.099,0.383 0.099,0.567 0,0.51 -0.209,0.945 -0.627,1.301 l -0.077,0.077 c -0.214,0.184 -0.442,0.367 -0.681,0.551 -0.24,0.184 -0.493,0.358 -0.758,0.521 -0.603,0.358 -1.195,0.536 -1.777,0.536 -0.245,0 -0.49,-0.035 -0.735,-0.107 -0.184,-0.039 -0.355,-0.109 -0.513,-0.207 -0.158,-0.097 -0.294,-0.216 -0.406,-0.359 -0.122,0.102 -0.24,0.196 -0.352,0.283 -0.112,0.087 -0.24,0.177 -0.383,0.268 h 0.015 c -0.234,0.163 -0.459,0.302 -0.674,0.413 -0.214,0.113 -0.419,0.209 -0.612,0.291 -0.173,0.072 -0.358,0.122 -0.551,0.154 -0.193,0.027 -0.377,0.042 -0.55,0.042 z"
         id="path111"
         inkscape:connector-curvature="0"
         style="fill:#edebeb" />
    </g>
    <g
       transform="matrix(0.99727757,0,0,2.0871231,-40.303034,301.05971)"
       id="g113">
      <path
         d="m 245.953,282.132 c -0.26,0 -0.548,-0.046 -0.863,-0.14 -0.464,-0.11 -0.863,-0.319 -1.197,-0.625 -0.334,-0.307 -0.585,-0.673 -0.752,-1.1 -0.297,-0.706 -0.288,-1.503 0.028,-2.395 0.111,-0.315 0.279,-0.686 0.501,-1.113 0.037,-0.073 0.079,-0.152 0.126,-0.237 0.046,-0.083 0.097,-0.171 0.153,-0.264 -0.428,0.222 -0.845,0.459 -1.253,0.71 -0.408,0.25 -0.827,0.487 -1.253,0.71 -0.761,0.465 -1.489,0.886 -2.185,1.267 -0.696,0.381 -1.341,0.7 -1.935,0.96 -0.353,0.167 -0.71,0.251 -1.072,0.251 -0.362,0 -0.71,-0.065 -1.044,-0.196 -0.334,-0.129 -0.636,-0.319 -0.905,-0.57 -0.268,-0.251 -0.477,-0.552 -0.626,-0.905 -0.167,-0.352 -0.251,-0.71 -0.251,-1.071 0,-0.363 0.065,-0.711 0.195,-1.044 0.13,-0.334 0.32,-0.636 0.57,-0.905 0.251,-0.269 0.553,-0.477 0.905,-0.627 0.427,-0.204 0.951,-0.477 1.573,-0.821 0.621,-0.344 1.285,-0.719 1.99,-1.127 0.817,-0.483 1.675,-0.979 2.575,-1.49 0.9,-0.511 1.786,-0.952 2.659,-1.323 0.984,-0.483 1.902,-0.807 2.757,-0.975 0.593,-0.148 1.145,-0.231 1.656,-0.25 0.511,-0.019 1.006,0.037 1.49,0.167 1.02,0.296 1.716,0.928 2.088,1.892 0.277,0.706 0.321,1.392 0.125,2.061 -0.196,0.667 -0.451,1.3 -0.767,1.894 0.057,-0.019 0.117,-0.033 0.182,-0.042 0.065,-0.009 0.125,-0.033 0.181,-0.069 0.352,-0.13 0.71,-0.181 1.073,-0.154 0.362,0.029 0.704,0.116 1.029,0.265 0.325,0.148 0.613,0.358 0.863,0.625 0.25,0.269 0.44,0.58 0.571,0.933 0.13,0.372 0.185,0.738 0.167,1.1 -0.019,0.363 -0.102,0.706 -0.251,1.03 -0.148,0.325 -0.356,0.613 -0.625,0.863 -0.269,0.25 -0.59,0.442 -0.961,0.571 -0.873,0.315 -1.671,0.598 -2.394,0.85 -0.723,0.25 -1.365,0.469 -1.922,0.654 -0.778,0.223 -1.41,0.385 -1.892,0.487 -0.483,0.101 -0.919,0.153 -1.309,0.153 z"
         id="path115"
         inkscape:connector-curvature="0"
         style="fill:#f8f8f1" />
      <path
         d="m 254.668,284.22 c -0.205,0 -0.394,-0.005 -0.571,-0.014 -0.177,-0.01 -0.311,-0.024 -0.405,-0.042 -0.519,-0.15 -0.983,-0.386 -1.392,-0.71 -0.408,-0.325 -0.712,-0.72 -0.918,-1.184 -0.129,-0.26 -0.213,-0.496 -0.251,-0.71 -0.035,-0.213 -0.054,-0.431 -0.054,-0.654 0,-0.296 0.027,-0.585 0.083,-0.863 -0.167,-0.111 -0.344,-0.232 -0.529,-0.362 -0.185,-0.13 -0.325,-0.269 -0.419,-0.419 -0.445,-0.593 -0.667,-1.225 -0.667,-1.892 0,-0.446 0.098,-0.867 0.292,-1.267 0.196,-0.398 0.459,-0.756 0.794,-1.073 0.092,-0.092 0.264,-0.268 0.515,-0.529 0.25,-0.26 0.477,-0.519 0.681,-0.779 l 0.557,-0.613 c 0.26,-0.277 0.525,-0.56 0.794,-0.848 0.269,-0.288 0.533,-0.561 0.794,-0.821 0.296,-0.26 0.556,-0.483 0.779,-0.669 0.223,-0.185 0.417,-0.334 0.585,-0.446 0.965,-0.593 1.967,-0.779 3.007,-0.556 1.075,0.279 1.79,0.881 2.144,1.809 l -0.027,-0.029 c 0.073,0.167 0.133,0.33 0.179,0.488 0.046,0.158 0.079,0.319 0.098,0.487 0.26,-0.279 0.492,-0.542 0.696,-0.793 0.204,-0.251 0.39,-0.479 0.557,-0.682 l 0.389,-0.446 c 0.038,-0.037 0.065,-0.073 0.084,-0.111 0.019,-0.018 0.037,-0.046 0.056,-0.083 0.427,-0.502 0.933,-0.859 1.517,-1.073 0.585,-0.212 1.173,-0.245 1.769,-0.097 0.408,0.111 0.783,0.315 1.127,0.612 0.344,0.298 0.627,0.64 0.85,1.03 0.258,0.594 0.375,1.1 0.348,1.517 -0.029,0.417 -0.061,0.701 -0.098,0.85 -0.019,0.092 -0.042,0.181 -0.071,0.264 -0.027,0.084 -0.05,0.163 -0.068,0.237 l -0.169,0.53 -0.027,0.083 c 0.371,0.037 0.738,0.139 1.1,0.306 0.363,0.167 0.673,0.4 0.933,0.696 0.241,0.298 0.423,0.623 0.542,0.975 0.121,0.353 0.182,0.696 0.182,1.03 0,0.928 -0.381,1.717 -1.142,2.367 l -0.139,0.139 c -0.39,0.334 -0.803,0.669 -1.24,1.002 -0.435,0.334 -0.894,0.65 -1.378,0.947 -1.096,0.65 -2.171,0.973 -3.229,0.973 -0.446,0 -0.89,-0.065 -1.336,-0.194 -0.334,-0.073 -0.646,-0.2 -0.933,-0.375 -0.288,-0.177 -0.534,-0.394 -0.738,-0.655 -0.223,0.186 -0.436,0.358 -0.64,0.515 -0.204,0.158 -0.436,0.321 -0.696,0.488 h 0.027 c -0.427,0.296 -0.835,0.546 -1.223,0.752 -0.392,0.204 -0.761,0.379 -1.115,0.529 -0.315,0.129 -0.65,0.222 -1.002,0.277 -0.352,0.058 -0.687,0.086 -1.002,0.086 z"
         id="path117"
         inkscape:connector-curvature="0"
         style="fill:#f8f8f1" />
      <path
         d="m 271.122,281.575 c -0.223,0 -0.474,-0.027 -0.753,-0.083 -0.427,-0.111 -0.807,-0.302 -1.142,-0.571 -0.333,-0.269 -0.602,-0.589 -0.806,-0.961 -0.521,0.205 -1.062,0.247 -1.63,0.126 -0.565,-0.121 -1.052,-0.413 -1.46,-0.878 -0.261,-0.277 -0.446,-0.593 -0.557,-0.946 -0.111,-0.352 -0.152,-0.71 -0.125,-1.071 0.027,-0.363 0.12,-0.706 0.277,-1.03 0.157,-0.324 0.377,-0.617 0.655,-0.877 0.204,-0.167 0.421,-0.362 0.654,-0.585 0.233,-0.223 0.479,-0.464 0.738,-0.725 0.446,-0.445 0.914,-0.894 1.406,-1.35 0.492,-0.454 0.971,-0.867 1.434,-1.238 0.315,-0.242 0.616,-0.455 0.904,-0.64 0.288,-0.186 0.561,-0.344 0.821,-0.474 0.965,-0.464 1.911,-0.593 2.841,-0.389 0.5,0.148 0.941,0.398 1.321,0.752 0.381,0.352 0.673,0.779 0.878,1.281 0.258,0.742 0.25,1.521 -0.029,2.338 -0.037,0.094 -0.075,0.186 -0.111,0.279 -0.037,0.092 -0.083,0.194 -0.14,0.306 0.669,0.315 1.151,0.836 1.449,1.559 0.129,0.371 0.185,0.742 0.166,1.113 -0.019,0.371 -0.101,0.719 -0.25,1.044 -0.149,0.325 -0.358,0.613 -0.625,0.863 -0.269,0.25 -0.59,0.442 -0.961,0.571 -0.594,0.223 -1.127,0.423 -1.601,0.598 -0.473,0.177 -0.877,0.321 -1.211,0.432 -0.204,0.073 -0.381,0.139 -0.529,0.194 -0.148,0.055 -0.269,0.102 -0.362,0.139 -0.186,0.038 -0.381,0.084 -0.585,0.14 -0.205,0.056 -0.428,0.083 -0.667,0.083 z"
         id="path119"
         inkscape:connector-curvature="0"
         style="fill:#f8f8f1" />
      <path
         d="m 277.134,284.22 c -0.205,0 -0.394,-0.005 -0.571,-0.014 -0.175,-0.01 -0.311,-0.024 -0.404,-0.042 -0.519,-0.15 -0.984,-0.386 -1.392,-0.71 -0.408,-0.325 -0.714,-0.72 -0.919,-1.184 -0.129,-0.26 -0.212,-0.496 -0.25,-0.71 -0.037,-0.213 -0.056,-0.431 -0.056,-0.654 0,-0.296 0.029,-0.585 0.083,-0.863 -0.166,-0.111 -0.343,-0.232 -0.527,-0.362 -0.186,-0.13 -0.326,-0.269 -0.419,-0.419 -0.446,-0.593 -0.669,-1.225 -0.669,-1.892 0,-0.446 0.098,-0.867 0.294,-1.267 0.194,-0.398 0.459,-0.756 0.794,-1.073 0.092,-0.092 0.264,-0.268 0.514,-0.529 0.25,-0.26 0.479,-0.519 0.682,-0.779 l 0.557,-0.613 c 0.258,-0.277 0.525,-0.56 0.794,-0.848 0.268,-0.288 0.533,-0.561 0.793,-0.821 0.298,-0.26 0.556,-0.483 0.779,-0.669 0.223,-0.185 0.419,-0.334 0.585,-0.446 0.965,-0.593 1.968,-0.779 3.007,-0.556 1.077,0.279 1.792,0.881 2.145,1.809 l -0.029,-0.029 c 0.075,0.167 0.135,0.33 0.181,0.488 0.046,0.158 0.079,0.319 0.098,0.487 0.258,-0.279 0.492,-0.542 0.696,-0.793 0.204,-0.251 0.389,-0.479 0.557,-0.682 l 0.389,-0.446 c 0.037,-0.037 0.065,-0.073 0.084,-0.111 0.018,-0.018 0.035,-0.046 0.054,-0.083 0.427,-0.502 0.933,-0.859 1.517,-1.073 0.585,-0.212 1.175,-0.245 1.769,-0.097 0.408,0.111 0.784,0.315 1.127,0.612 0.344,0.298 0.628,0.64 0.85,1.03 0.26,0.594 0.377,1.1 0.348,1.517 -0.029,0.417 -0.061,0.701 -0.097,0.85 -0.019,0.092 -0.043,0.181 -0.071,0.264 -0.027,0.084 -0.052,0.163 -0.069,0.237 l -0.167,0.53 -0.027,0.083 c 0.37,0.037 0.737,0.139 1.098,0.306 0.363,0.167 0.674,0.4 0.933,0.696 0.242,0.298 0.423,0.623 0.544,0.975 0.12,0.353 0.181,0.696 0.181,1.03 0,0.928 -0.381,1.717 -1.141,2.367 l -0.14,0.139 c -0.39,0.334 -0.803,0.669 -1.238,1.002 -0.436,0.334 -0.896,0.65 -1.378,0.947 -1.096,0.65 -2.172,0.973 -3.23,0.973 -0.446,0 -0.89,-0.065 -1.335,-0.194 -0.334,-0.073 -0.647,-0.2 -0.934,-0.375 -0.287,-0.177 -0.534,-0.394 -0.738,-0.655 -0.223,0.186 -0.435,0.358 -0.639,0.515 -0.205,0.158 -0.438,0.321 -0.696,0.488 h 0.027 c -0.427,0.296 -0.835,0.546 -1.225,0.752 -0.39,0.204 -0.761,0.379 -1.113,0.529 -0.315,0.129 -0.65,0.222 -1.003,0.277 -0.353,0.058 -0.687,0.086 -1.003,0.086 z"
         id="path121"
         inkscape:connector-curvature="0"
         style="fill:#f8f8f1" />
    </g>
    <g
       transform="matrix(0.99727757,0,0,2.0871231,-40.303034,301.05971)"
       id="g123">
      <path
         d="m 320.561,237.828 c -0.045,0 -0.088,-0.013 -0.127,-0.038 -0.123,-0.053 -0.21,-0.2 -0.263,-0.447 -0.038,-0.219 -0.028,-0.466 0.03,-0.738 0.058,-0.272 0.142,-0.578 0.253,-0.913 0.039,-0.118 0.076,-0.236 0.112,-0.361 0.035,-0.122 0.066,-0.236 0.092,-0.34 0.02,-0.053 0.036,-0.118 0.049,-0.194 -0.194,-0.065 -0.42,-0.082 -0.675,-0.049 -0.256,0.032 -0.543,0.133 -0.861,0.299 -0.285,0.143 -0.586,0.329 -0.904,0.555 -0.317,0.228 -0.655,0.496 -1.01,0.808 -0.072,0.063 -0.142,0.067 -0.214,0.008 -0.072,-0.057 -0.123,-0.158 -0.156,-0.302 -0.038,-0.141 -0.041,-0.291 -0.009,-0.447 0.033,-0.154 0.084,-0.266 0.156,-0.329 0.369,-0.325 0.717,-0.605 1.044,-0.846 0.328,-0.24 0.643,-0.43 0.948,-0.574 0.797,-0.401 1.448,-0.466 1.953,-0.194 0.15,0.078 0.253,0.259 0.311,0.544 0.059,0.297 0.045,0.618 -0.039,0.962 -0.084,0.344 -0.185,0.702 -0.301,1.078 -0.014,0.027 -0.024,0.059 -0.035,0.099 -0.009,0.038 -0.021,0.084 -0.034,0.135 0.149,-0.065 0.368,-0.194 0.656,-0.388 0.289,-0.194 0.692,-0.479 1.211,-0.856 0.071,-0.051 0.143,-0.042 0.218,0.03 0.075,0.072 0.124,0.186 0.151,0.34 0.033,0.143 0.033,0.289 0,0.439 -0.033,0.148 -0.091,0.255 -0.175,0.321 -0.298,0.207 -0.57,0.394 -0.816,0.563 -0.247,0.169 -0.467,0.31 -0.661,0.428 -0.266,0.156 -0.465,0.262 -0.598,0.321 -0.133,0.059 -0.235,0.086 -0.306,0.086 z"
         id="path125"
         inkscape:connector-curvature="0"
         style="fill:#f8f8f1" />
      <path
         d="m 331.008,237.828 c -0.045,0 -0.088,-0.013 -0.127,-0.038 -0.123,-0.053 -0.21,-0.2 -0.263,-0.447 -0.038,-0.219 -0.028,-0.466 0.03,-0.738 0.058,-0.272 0.142,-0.578 0.253,-0.913 0.039,-0.118 0.076,-0.236 0.112,-0.361 0.035,-0.122 0.066,-0.236 0.092,-0.34 0.02,-0.053 0.036,-0.118 0.048,-0.194 -0.194,-0.065 -0.42,-0.082 -0.675,-0.049 -0.256,0.032 -0.543,0.133 -0.86,0.299 -0.285,0.143 -0.586,0.329 -0.904,0.555 -0.317,0.228 -0.655,0.496 -1.01,0.808 -0.072,0.063 -0.142,0.067 -0.214,0.008 -0.072,-0.057 -0.123,-0.158 -0.156,-0.302 -0.038,-0.141 -0.041,-0.291 -0.009,-0.447 0.033,-0.154 0.084,-0.266 0.156,-0.329 0.369,-0.325 0.717,-0.605 1.044,-0.846 0.328,-0.24 0.643,-0.43 0.948,-0.574 0.797,-0.401 1.448,-0.466 1.953,-0.194 0.15,0.078 0.253,0.259 0.311,0.544 0.059,0.297 0.045,0.618 -0.039,0.962 -0.084,0.344 -0.185,0.702 -0.301,1.078 -0.014,0.027 -0.024,0.059 -0.035,0.099 -0.009,0.038 -0.021,0.084 -0.034,0.135 0.149,-0.065 0.368,-0.194 0.656,-0.388 0.289,-0.194 0.692,-0.479 1.211,-0.856 0.071,-0.051 0.143,-0.042 0.218,0.03 0.075,0.072 0.124,0.186 0.151,0.34 0.033,0.143 0.033,0.289 0,0.439 -0.033,0.148 -0.091,0.255 -0.175,0.321 -0.298,0.207 -0.57,0.394 -0.816,0.563 -0.247,0.169 -0.467,0.31 -0.661,0.428 -0.266,0.156 -0.465,0.262 -0.598,0.321 -0.133,0.059 -0.234,0.086 -0.306,0.086 z"
         id="path127"
         inkscape:connector-curvature="0"
         style="fill:#f8f8f1" />
      <path
         d="m 336.732,237.828 c -0.045,0 -0.088,-0.013 -0.127,-0.038 -0.123,-0.053 -0.21,-0.2 -0.263,-0.447 -0.038,-0.219 -0.028,-0.466 0.03,-0.738 0.058,-0.272 0.142,-0.578 0.253,-0.913 0.039,-0.118 0.076,-0.236 0.112,-0.361 0.035,-0.122 0.066,-0.236 0.092,-0.34 0.02,-0.053 0.036,-0.118 0.049,-0.194 -0.194,-0.065 -0.42,-0.082 -0.675,-0.049 -0.256,0.032 -0.543,0.133 -0.861,0.299 -0.285,0.143 -0.586,0.329 -0.904,0.555 -0.317,0.228 -0.655,0.496 -1.01,0.808 -0.072,0.063 -0.142,0.067 -0.214,0.008 -0.072,-0.057 -0.123,-0.158 -0.156,-0.302 -0.038,-0.141 -0.041,-0.291 -0.009,-0.447 0.033,-0.154 0.084,-0.266 0.156,-0.329 0.369,-0.325 0.717,-0.605 1.044,-0.846 0.328,-0.24 0.643,-0.43 0.948,-0.574 0.797,-0.401 1.448,-0.466 1.953,-0.194 0.15,0.078 0.253,0.259 0.311,0.544 0.059,0.297 0.045,0.618 -0.039,0.962 -0.084,0.344 -0.185,0.702 -0.301,1.078 -0.014,0.027 -0.024,0.059 -0.035,0.099 -0.009,0.038 -0.021,0.084 -0.034,0.135 0.149,-0.065 0.368,-0.194 0.656,-0.388 0.289,-0.194 0.692,-0.479 1.211,-0.856 0.071,-0.051 0.143,-0.042 0.218,0.03 0.075,0.072 0.124,0.186 0.151,0.34 0.033,0.143 0.033,0.289 0,0.439 -0.033,0.148 -0.091,0.255 -0.175,0.321 -0.298,0.207 -0.57,0.394 -0.816,0.563 -0.247,0.169 -0.467,0.31 -0.661,0.428 -0.266,0.156 -0.465,0.262 -0.598,0.321 -0.133,0.059 -0.235,0.086 -0.306,0.086 z"
         id="path129"
         inkscape:connector-curvature="0"
         style="fill:#f8f8f1" />
      <path
         d="m 339.823,239.132 c -0.053,0 -0.099,-0.006 -0.141,-0.019 -0.042,-0.015 -0.086,-0.034 -0.132,-0.059 -0.116,-0.065 -0.197,-0.2 -0.243,-0.409 -0.058,-0.257 -0.057,-0.572 0.005,-0.943 0.061,-0.369 0.163,-0.844 0.306,-1.428 0.025,-0.103 0.052,-0.219 0.078,-0.35 0.025,-0.129 0.055,-0.253 0.088,-0.369 -0.084,0.065 -0.174,0.173 -0.268,0.321 -0.094,0.15 -0.189,0.302 -0.287,0.458 -0.064,0.103 -0.137,0.141 -0.218,0.116 -0.081,-0.025 -0.148,-0.097 -0.199,-0.213 -0.052,-0.131 -0.071,-0.272 -0.058,-0.428 0.013,-0.156 0.049,-0.291 0.107,-0.409 0.091,-0.129 0.185,-0.272 0.282,-0.426 0.098,-0.156 0.201,-0.285 0.311,-0.39 0.266,-0.272 0.509,-0.342 0.73,-0.213 0.103,0.038 0.18,0.169 0.233,0.388 0.052,0.221 0.05,0.481 -0.005,0.778 -0.055,0.297 -0.148,0.719 -0.277,1.263 -0.032,0.156 -0.066,0.31 -0.101,0.466 -0.036,0.156 -0.07,0.304 -0.102,0.447 -0.013,0.053 -0.023,0.097 -0.03,0.137 -0.006,0.038 -0.013,0.076 -0.019,0.116 0.064,-0.013 0.148,-0.053 0.248,-0.116 0.1,-0.065 0.217,-0.167 0.35,-0.302 0.132,-0.137 0.286,-0.321 0.461,-0.555 0.175,-0.234 0.376,-0.525 0.603,-0.875 0.175,-0.285 0.34,-0.563 0.496,-0.835 0.155,-0.272 0.291,-0.519 0.408,-0.738 0.116,-0.221 0.246,-0.472 0.388,-0.759 0.078,-0.181 0.172,-0.238 0.283,-0.175 0.052,0.027 0.094,0.072 0.127,0.137 0.032,0.065 0.058,0.129 0.077,0.194 0.045,0.181 0.049,0.396 0.011,0.641 -0.039,0.247 -0.111,0.628 -0.214,1.147 -0.039,0.169 -0.077,0.337 -0.112,0.506 -0.036,0.169 -0.07,0.323 -0.102,0.466 -0.006,0.065 -0.016,0.135 -0.03,0.213 0.091,-0.025 0.188,-0.097 0.292,-0.213 0.103,-0.116 0.207,-0.247 0.311,-0.39 0.103,-0.141 0.2,-0.293 0.291,-0.456 0.091,-0.162 0.172,-0.302 0.244,-0.418 0.064,-0.118 0.136,-0.169 0.213,-0.156 0.078,0.013 0.147,0.078 0.205,0.194 0.052,0.131 0.076,0.272 0.073,0.428 -0.003,0.156 -0.037,0.291 -0.102,0.407 -0.149,0.274 -0.301,0.529 -0.457,0.77 -0.155,0.238 -0.312,0.445 -0.471,0.62 -0.158,0.175 -0.32,0.299 -0.481,0.371 -0.162,0.07 -0.321,0.067 -0.477,-0.011 -0.103,-0.078 -0.178,-0.207 -0.224,-0.388 -0.038,-0.181 -0.05,-0.38 -0.034,-0.593 0.016,-0.215 0.054,-0.489 0.112,-0.827 -0.072,0.129 -0.144,0.253 -0.218,0.369 -0.075,0.116 -0.154,0.247 -0.238,0.388 -0.899,1.415 -1.595,2.122 -2.093,2.122 z"
         id="path131"
         inkscape:connector-curvature="0"
         style="fill:#f8f8f1" />
      <path
         d="m 347.626,237.828 c -0.045,0 -0.088,-0.013 -0.127,-0.038 -0.123,-0.053 -0.21,-0.2 -0.263,-0.447 -0.038,-0.219 -0.028,-0.466 0.03,-0.738 0.058,-0.272 0.142,-0.578 0.253,-0.913 0.039,-0.118 0.076,-0.236 0.112,-0.361 0.035,-0.122 0.066,-0.236 0.092,-0.34 0.02,-0.053 0.036,-0.118 0.048,-0.194 -0.194,-0.065 -0.42,-0.082 -0.675,-0.049 -0.256,0.032 -0.543,0.133 -0.86,0.299 -0.285,0.143 -0.586,0.329 -0.904,0.555 -0.317,0.228 -0.655,0.496 -1.01,0.808 -0.072,0.063 -0.142,0.067 -0.214,0.008 -0.072,-0.057 -0.123,-0.158 -0.156,-0.302 -0.038,-0.141 -0.041,-0.291 -0.009,-0.447 0.033,-0.154 0.084,-0.266 0.156,-0.329 0.369,-0.325 0.717,-0.605 1.044,-0.846 0.328,-0.24 0.643,-0.43 0.948,-0.574 0.797,-0.401 1.448,-0.466 1.953,-0.194 0.15,0.078 0.253,0.259 0.311,0.544 0.059,0.297 0.045,0.618 -0.039,0.962 -0.084,0.344 -0.185,0.702 -0.301,1.078 -0.014,0.027 -0.024,0.059 -0.035,0.099 -0.009,0.038 -0.021,0.084 -0.034,0.135 0.149,-0.065 0.368,-0.194 0.656,-0.388 0.289,-0.194 0.692,-0.479 1.211,-0.856 0.071,-0.051 0.143,-0.042 0.218,0.03 0.075,0.072 0.124,0.186 0.151,0.34 0.033,0.143 0.033,0.289 0,0.439 -0.033,0.148 -0.091,0.255 -0.175,0.321 -0.298,0.207 -0.57,0.394 -0.816,0.563 -0.247,0.169 -0.467,0.31 -0.661,0.428 -0.266,0.156 -0.465,0.262 -0.598,0.321 -0.133,0.059 -0.234,0.086 -0.306,0.086 z"
         id="path133"
         inkscape:connector-curvature="0"
         style="fill:#f8f8f1" />
      <path
         d="m 353.35,237.828 c -0.045,0 -0.088,-0.013 -0.127,-0.038 -0.123,-0.053 -0.21,-0.2 -0.263,-0.447 -0.038,-0.219 -0.028,-0.466 0.03,-0.738 0.058,-0.272 0.142,-0.578 0.253,-0.913 0.039,-0.118 0.076,-0.236 0.112,-0.361 0.035,-0.122 0.066,-0.236 0.092,-0.34 0.02,-0.053 0.036,-0.118 0.049,-0.194 -0.194,-0.065 -0.42,-0.082 -0.675,-0.049 -0.256,0.032 -0.543,0.133 -0.861,0.299 -0.285,0.143 -0.586,0.329 -0.904,0.555 -0.317,0.228 -0.655,0.496 -1.01,0.808 -0.072,0.063 -0.142,0.067 -0.214,0.008 -0.072,-0.057 -0.123,-0.158 -0.156,-0.302 -0.038,-0.141 -0.041,-0.291 -0.009,-0.447 0.033,-0.154 0.084,-0.266 0.156,-0.329 0.369,-0.325 0.717,-0.605 1.044,-0.846 0.328,-0.24 0.643,-0.43 0.948,-0.574 0.797,-0.401 1.448,-0.466 1.953,-0.194 0.15,0.078 0.253,0.259 0.311,0.544 0.059,0.297 0.045,0.618 -0.039,0.962 -0.084,0.344 -0.185,0.702 -0.301,1.078 -0.014,0.027 -0.024,0.059 -0.035,0.099 -0.009,0.038 -0.021,0.084 -0.034,0.135 0.149,-0.065 0.368,-0.194 0.656,-0.388 0.289,-0.194 0.692,-0.479 1.211,-0.856 0.071,-0.051 0.143,-0.042 0.218,0.03 0.075,0.072 0.124,0.186 0.151,0.34 0.033,0.143 0.033,0.289 0,0.439 -0.033,0.148 -0.091,0.255 -0.175,0.321 -0.298,0.207 -0.571,0.394 -0.816,0.563 -0.247,0.169 -0.467,0.31 -0.661,0.428 -0.266,0.156 -0.465,0.262 -0.598,0.321 -0.133,0.059 -0.234,0.086 -0.306,0.086 z"
         id="path135"
         inkscape:connector-curvature="0"
         style="fill:#f8f8f1" />
    </g>
    <g
       transform="matrix(0.99727757,0,0,2.0871231,-40.303034,301.05971)"
       id="g137">
      <path
         d="m 390.334,238.436 c -0.058,0 -0.113,-0.012 -0.163,-0.037 -0.159,-0.052 -0.271,-0.196 -0.338,-0.438 -0.049,-0.215 -0.037,-0.456 0.038,-0.723 0.075,-0.266 0.184,-0.566 0.326,-0.894 0.05,-0.116 0.098,-0.231 0.144,-0.353 0.045,-0.12 0.086,-0.231 0.118,-0.333 0.026,-0.052 0.046,-0.116 0.063,-0.19 -0.25,-0.064 -0.541,-0.081 -0.87,-0.048 -0.33,0.031 -0.7,0.13 -1.109,0.293 -0.367,0.14 -0.756,0.322 -1.165,0.543 -0.409,0.223 -0.844,0.485 -1.302,0.791 -0.092,0.062 -0.184,0.066 -0.276,0.008 -0.092,-0.056 -0.159,-0.155 -0.201,-0.295 -0.049,-0.138 -0.053,-0.285 -0.012,-0.438 0.042,-0.151 0.109,-0.26 0.201,-0.322 0.476,-0.318 0.924,-0.593 1.346,-0.828 0.423,-0.235 0.829,-0.421 1.222,-0.562 1.028,-0.392 1.866,-0.456 2.518,-0.19 0.193,0.076 0.326,0.254 0.401,0.533 0.076,0.291 0.058,0.605 -0.05,0.942 -0.109,0.337 -0.238,0.688 -0.387,1.055 -0.018,0.027 -0.031,0.058 -0.045,0.097 -0.012,0.037 -0.027,0.083 -0.043,0.132 0.192,-0.064 0.474,-0.19 0.846,-0.38 0.372,-0.19 0.892,-0.469 1.561,-0.838 0.091,-0.05 0.185,-0.041 0.281,0.029 0.096,0.07 0.16,0.182 0.194,0.333 0.042,0.14 0.042,0.283 0,0.43 -0.042,0.145 -0.117,0.25 -0.226,0.314 -0.385,0.202 -0.735,0.386 -1.052,0.551 -0.318,0.165 -0.602,0.304 -0.852,0.419 -0.343,0.153 -0.599,0.256 -0.771,0.314 -0.174,0.058 -0.305,0.085 -0.397,0.085 z"
         id="path139"
         inkscape:connector-curvature="0"
         style="fill:#f8f8f1" />
    </g>
    <path
       d="m 113.19589,781.56759 c 0,1.30437 -0.50448,2.3604 -1.12772,2.3604 h -3.47966 c -0.62321,0 -1.12801,-1.05603 -1.12801,-2.3604 v -28.08653 c 0,-1.30464 0.5048,-2.36036 1.12801,-2.36036 h 3.47966 c 0.62324,0 1.12772,1.05572 1.12772,2.36036 z"
       id="path141"
       inkscape:connector-curvature="0"
       style="fill:#2f2f34;stroke-width:1.09700561" />
    <path
       d="m 113.03647,917.60846 c 0,1.30421 -0.50481,2.36032 -1.12812,2.36032 h -3.47925 c -0.62352,0 -1.1279,-1.05611 -1.1279,-2.36032 v -28.08654 c 0,-1.30461 0.50438,-2.36036 1.1279,-2.36036 h 3.47925 c 0.62331,0 1.12812,1.05575 1.12812,2.36036 z"
       id="path143"
       inkscape:connector-curvature="0"
       style="fill:#2f2f34;stroke-width:1.09700561" />
    <path
       d="m 149.53963,829.54224 c 0.6232,0 1.12803,1.0559 1.12803,2.36036 v 7.28188 c 0,1.30453 -0.50483,2.36082 -1.12803,2.36082 h -13.4203 c -0.62345,0 -1.12778,-1.05629 -1.12778,-2.36082 v -7.28188 c 0,-1.30446 0.50433,-2.36036 1.12778,-2.36036 z"
       id="path145"
       inkscape:connector-curvature="0"
       style="fill:#2f2f34;stroke-width:1.09700561" />
    <path
       d="m 84.536177,829.54224 c 0.623302,0 1.127915,1.0559 1.127915,2.36036 v 7.28188 c 0,1.30453 -0.504613,2.36082 -1.127915,2.36082 h -13.42036 c -0.623297,0 -1.127927,-1.05629 -1.127927,-2.36082 v -7.28188 c 0,-1.30446 0.50463,-2.36036 1.127927,-2.36036 z"
       id="path147"
       inkscape:connector-curvature="0"
       style="fill:#2f2f34;stroke-width:1.09700561" />
    <path
       d="m 92.165349,789.53416 c 1.050134,1.08099 1.231633,3.38083 0.404889,5.11135 l -1.953664,4.08853 c -0.827738,1.73251 -1.92674,1.35042 -2.44233,-0.84731 l -2.922031,-12.43727 c -0.516568,-2.19762 -0.07996,-3.11169 0.970366,-2.03078 z"
       id="path149"
       inkscape:connector-curvature="0"
       style="fill:#2f2f34;stroke-width:1.09700561" />
    <path
       d="m 88.173247,873.91423 c 0.516587,-2.19746 1.615589,-2.57751 2.44234,-0.84723 l 1.95366,4.0886 c 0.827735,1.73019 0.645228,4.03236 -0.404911,5.11134 l -5.942767,6.11526 c -1.05013,1.08116 -1.486934,0.16707 -0.970348,-2.0308 z"
       id="path151"
       inkscape:connector-curvature="0"
       style="fill:#2f2f34;stroke-width:1.09700561" />
    <path
       d="m 128.49214,882.26694 c -1.0502,-1.08102 -1.23139,-3.38115 -0.40481,-5.11134 l 1.95353,-4.0886 c 0.82784,-1.73231 1.92679,-1.35023 2.44229,0.84723 l 2.92224,12.43717 c 0.5164,2.19787 0.0811,3.11196 -0.97032,2.0308 z"
       id="path153"
       inkscape:connector-curvature="0"
       style="fill:#2f2f34;stroke-width:1.09700561" />
    <path
       d="m 132.48315,797.88673 c -0.51655,2.19773 -1.61544,2.57753 -2.44229,0.84731 l -1.95353,-4.08853 c -0.82774,-1.73251 -0.64539,-4.03248 0.40481,-5.11135 l 5.94293,-6.11548 c 1.05014,-1.08091 1.48672,-0.16684 0.97032,2.03078 z"
       id="path155"
       inkscape:connector-curvature="0"
       style="fill:#2f2f34;stroke-width:1.09700561" />
    <path
       d="m 112.00032,721.76084 c 0.22318,1.37347 -0.16077,2.49625 -0.85375,2.49625 h -1.63641 c -0.69321,0 -1.07723,-1.12278 -0.85392,-2.49625 l 1.26562,-7.76821 c 0.22357,-1.37313 0.58936,-1.37313 0.81286,0 z"
       id="path157"
       inkscape:connector-curvature="0"
       style="fill:#ede9e6;stroke-width:1.09700561" />
    <path
       d="m 55.960179,832.04448 c 0.656211,-0.46751 1.192739,0.33612 1.192739,1.78671 v 3.4249 c 0,1.45047 -0.536528,2.25407 -1.192739,1.78656 l -3.711864,-2.64857 c -0.65621,-0.46741 -0.65621,-1.23361 0,-1.70109 z"
       id="path159"
       inkscape:connector-curvature="0"
       style="fill:#ede9e6;stroke-width:1.09700561" />
    <path
       d="m 108.65624,949.32625 c -0.22331,-1.37307 0.16071,-2.49629 0.85392,-2.49629 h 1.63641 c 0.69298,0 1.07693,1.12322 0.85375,2.49629 l -1.2656,7.76809 c -0.2235,1.37364 -0.58929,1.37364 -0.81286,0 z"
       id="path161"
       inkscape:connector-curvature="0"
       style="fill:#ede9e6;stroke-width:1.09700561" />
    <path
       d="m 164.69635,839.04265 c -0.65615,0.46751 -1.19275,-0.33609 -1.19275,-1.78656 v -3.4249 c 0,-1.45059 0.5366,-2.25422 1.19275,-1.78671 l 3.71191,2.64851 c 0.65606,0.46748 0.65606,1.23368 0,1.70109 z"
       id="path163"
       inkscape:connector-curvature="0"
       style="fill:#ede9e6;stroke-width:1.09700561" />
    <ellipse
       cx="110.3279"
       cy="835.54449"
       id="circle165"
       style="opacity:0.5;fill:#2f2f34;stroke-width:1.09700561"
       rx="19.35813"
       ry="40.513134" />
    <text
       xml:space="preserve"
       style="font-style:normal;font-variant:normal;font-weight:bold;font-stretch:normal;font-size:70.4970932px;line-height:125%;font-family:Cantarell;-inkscape-font-specification:'Cantarell Bold';letter-spacing:0px;word-spacing:0px;fill:#b3b3b3;fill-opacity:1;stroke:none;stroke-width:1.09700561px;stroke-linecap:butt;stroke-linejoin:miter;stroke-opacity:1"
       x="252.634"
       y="581.04895"
       id="text3596"
       transform="scale(0.78496725,1.2739385)"><tspan
         sodipodi:role="line"
         id="tspan3598"
         x="252.634"
         y="581.04895"
         style="stroke-width:1.09700561px">Osmose</tspan></text>
  </g>
</svg>
